<svg width="1410" height="414" viewBox="0 0 1410 414" fill="none" xmlns="http://www.w3.org/2000/svg">
<path d="M228.99 225.434C229.483 225.239 229.894 225.027 230.238 224.799C230.183 210.367 229.587 195.889 232.234 181.894C233.922 172.973 235.19 162.968 240.374 156.117C245.724 149.048 252.551 145.477 258.93 140.232C266.938 133.648 280.913 132.642 290.008 135.756C298.216 138.565 303.891 144.702 309.646 152.002C311.789 154.721 313.861 157.881 316.305 160.161C318.829 162.515 322.342 163.217 324.502 166.298C326.666 169.386 331.415 169.539 334.178 171.641C338.367 174.829 342.267 177.083 347.042 178.934C348.972 179.682 351.668 183.328 353.702 181.894C355.157 180.869 358.244 177.346 359.564 177.346C366.803 177.346 371.111 197.382 371.632 204.639C371.908 208.501 371.559 212.619 371.119 216.408C369.744 228.272 374.801 225.747 381.308 228.105C384.358 229.211 377.893 247.698 377.893 250.561C377.893 253.855 381.826 253.136 379.828 258.504C378.208 262.855 372.908 271.339 375.331 276.121C377.846 281.084 385.21 282.227 388.594 286.519C392.606 291.609 388.38 294.075 384.951 294.317C382.738 294.473 384.951 298.672 384.951 300.166C384.951 304.345 375.069 307.131 372.656 309.913C370.048 312.921 368.216 317.808 364.46 318.867C360.387 320.015 360.472 317.329 359.109 314.39C358.635 313.367 353.044 311.864 351.653 310.491C349.413 308.281 346.206 309.582 344.765 306.592C343.862 304.716 343.162 300.815 341.407 300.815C338.676 300.815 341.065 296.916 338.333 296.916C334.468 296.916 335.678 291.154 330.194 295.617C327.197 298.056 322.391 299.071 319.891 301.538C316.638 304.748 314.624 315.004 312.662 319.733C309.524 327.298 311.453 319.261 308.109 319.011C302.577 318.598 302.631 318.26 304.58 311.069C306.339 304.575 308.681 300.089 312.435 295.328C315.562 291.36 316.683 290.462 312.776 289.046C310.715 288.299 314.725 283.381 309.646 285.364C305.597 286.944 306.814 288.444 304.807 283.92C302.742 279.261 295.211 295.698 294.79 282.331C294.689 279.157 293.552 280.806 292.74 282.62C290.498 287.631 287.402 291.991 284.202 296.05C280.566 300.663 277.692 300.815 272.818 300.815C269.833 300.815 272.35 297.621 270.997 295.906C269.548 294.067 267.879 296.337 267.183 292.368C266.509 288.518 262.902 291.371 260.524 290.274C257.669 288.957 258.798 286.194 257.678 283.92C255.833 280.175 253.285 289.701 252.27 290.274C248.943 292.149 244.154 294.197 240.488 295.328C237.828 296.149 236.231 293.165 233.088 293.017C229.56 292.852 229.81 288.574 230.755 285.219C232.025 280.706 234.231 276.365 234.341 271.5C234.445 266.881 232.867 269.623 230.755 269.623C227.761 269.623 228.224 264.424 225.119 264.424C223.769 264.424 217.948 265.61 217.948 263.125C217.948 262.014 220.592 256.673 220.452 256.554C219.049 255.367 220.038 247.292 219.2 244.929C218.13 241.913 215.898 240.676 215.898 237.131C215.898 229.042 224.286 227.292 228.99 225.434Z" fill="#7D6988"/>
<path d="M168.427 276.136C165.122 288.059 164.448 298.159 164.35 310.501C163.361 310.09 162.48 309.354 162.062 308.497C160.975 306.266 154.084 308.484 152.059 307.185C145.718 303.119 137.133 299.163 132.394 307.914L132.371 307.958C130.209 311.95 127.766 316.462 124.665 309.955C122.597 305.616 118.041 304.63 115.742 301.354C111.545 295.374 99.9173 302.666 94.77 302.666C91.2046 302.666 92.6413 307.914 88.6319 307.914H76.8671C68.034 307.914 61.7936 318.409 52.8262 318.409C47.9718 318.409 47.873 323.3 44.4147 315.494C44.0766 314.731 41.1566 306.161 40.5499 310.829C40.1675 313.772 38.5039 313.26 38.5039 310.465C38.5039 305.995 40.2237 295.504 35.8895 293.483C31.4262 291.401 27.0479 290.859 22.3629 290.859C11.6735 290.859 21.8322 287.766 25.3183 282.55C27.4263 279.396 22.2557 279.098 25.2046 273.804C27.852 269.05 28.2737 267.699 28.2737 261.34C28.2737 257.434 29.4666 254.111 29.2967 250.189C28.9757 242.778 12.6521 258.447 9.34782 256.092C8.32307 255.362 -1.50425 251.436 0.19748 250.189C2.28631 248.658 11.8035 248.474 11.9054 246.253C12.0653 242.767 11.7455 239.244 11.9054 235.757C11.988 233.956 18.0978 233.37 15.4291 230.437C12.3399 227.041 12.9144 220.014 17.0205 220.014C20.0312 220.014 23.2485 218.849 26.455 218.702C39.6087 218.1 14.5003 204.098 19.6349 200.335C22.5187 198.222 25.2805 195.986 28.2737 194.067C29.4555 193.309 36.1815 192.72 36.401 191.735C37.2161 188.076 33.3888 181.886 33.3888 177.376C33.3888 173.865 38.3356 172.734 38.5039 168.849C38.8536 160.776 42.6282 167.346 44.4147 163.018C45.3421 160.771 39.945 152.505 45.1535 155.074C48.821 156.882 50.6201 155.088 53.2713 152.443L53.3377 152.377C56.5932 149.13 58.0166 153.785 60.5556 157.041C63.9425 161.385 67.5485 171.146 71.6952 173.805C76.2646 176.735 74.5459 170.791 75.4463 168.193C77.2434 163.007 83.484 170.809 86.0175 171.4C88.9216 172.077 91.9925 158.37 93.7469 155.438C96.287 151.193 100.441 148.092 103.181 154.418C106.252 161.505 106.857 155.875 110.627 155.875C115.236 155.875 113.824 164.08 114.264 167.464C114.52 169.429 117.125 160.385 119.777 166.808C121.078 169.959 124.263 178.749 126.711 172.785C130.315 164.003 134.693 175.2 137.623 178.688C140.024 181.547 140.316 182.583 142.909 177.595C146.532 170.625 148.562 161.875 150.979 154.126C152.639 148.806 156.825 161.079 157.402 162.289C159.549 166.796 161.867 154.057 165.699 157.041C167.091 158.125 171.844 166.98 173.542 164.257C176.945 158.802 180.437 170.744 181.158 172.858C183.338 179.247 182.786 182.657 177.862 186.633C175.55 188.499 172.614 185.752 170.701 188.819C169.688 190.443 170.991 192.264 169.223 193.776C167.433 195.306 164.343 197.33 162.176 197.639C159.205 198.062 147.208 195.62 150.581 204.271C151.771 207.323 154.194 209.229 155.583 212.143C156.872 214.849 157.199 218.393 159.22 220.452C160.261 221.511 163.497 226.384 164.335 226.574C165.46 226.828 167.423 227.496 168.427 228.177C171.154 230.029 168.251 237.295 166.893 239.037C163.202 243.771 167.824 250.715 168.882 255.947C170.07 261.823 169.994 270.486 168.427 276.136Z" fill="#594E68"/>
<path d="M318.53 113.377C315.493 120.982 313.399 125.946 308.147 130.109C308.033 130.955 307.896 131.785 307.633 132.498C306.434 135.752 304.018 137.404 302.752 140.964C299.939 148.876 303.774 156.766 303.774 164.61C303.774 175.699 309.368 185.524 315.352 193.219C318.83 197.692 332.832 193.217 334.195 196.722C334.938 198.633 333.199 206.488 335.444 206.648C339.686 206.951 338.416 207.596 340.779 210.297C341.469 211.086 343.147 208.974 344.184 209.567C344.814 209.927 346.128 211.814 346.682 212.486C348.138 214.255 350.681 215.846 352.584 216.865C358.317 219.937 359.108 215.018 364.049 212.195C366.902 210.564 367.201 214.382 369.157 214.53C371.426 214.702 371.549 211.903 374.265 211.903C379.972 211.903 377.394 222.794 382.438 222.412C386.92 222.073 382.769 209.434 384.708 206.94C387.169 203.776 396.258 219.263 400.6 214.238C402.701 211.806 396.862 211.903 400.827 211.903C402.297 211.903 409 213.08 409 210.589C409 206.625 407.64 205.63 406.162 203.729C405.605 203.013 405.977 200.992 405.935 200.079C405.874 198.743 404.346 198.9 404.346 198.474C404.346 197.605 406.347 197.486 405.708 196.43C405.273 195.712 404.38 194.889 405.14 193.803C406.669 191.618 407.834 188.957 407.978 185.629C408.265 178.998 404.222 179.953 400.259 177.455C399.35 176.882 391.493 173.203 391.859 172.784C393.445 170.972 397.961 173.159 400.032 172.2C402.665 170.982 401.849 166.927 401.849 164.026C401.849 159.116 396.741 157.311 396.741 153.444C396.741 148.529 396.252 143.591 392.143 143.591C388.027 143.591 390.102 126.6 387.546 132.352C387.229 133.066 385.826 129.199 384.424 128.411C382.007 127.051 379.348 125.995 376.819 125.273C373.926 124.446 367.919 116.723 374.776 114.763C375.923 114.435 382.449 116.036 381.303 112.72C379.757 108.246 377.33 112.763 377.33 106.224C377.33 100.748 368.991 111.108 367.681 112.793C364.87 116.407 357.885 111.825 360.587 109.508C361.721 108.536 367.525 105.552 363.595 104.108C362.165 103.582 363.39 96.2968 361.495 94.4011C355.329 88.2343 356.351 99.8352 355.819 103.597C355.019 109.255 345.66 118.882 345.66 108.779V99.5828C345.66 94.2393 344.208 98.052 342.027 98.853C338.683 100.082 342.679 85.7892 339.019 85.7892C335.349 85.7892 336.903 83.2548 336.409 79.4397C336.209 77.9004 330.624 84.8755 329.825 85.7892C325.973 90.1915 330.564 99.5525 331.301 104.765C331.873 108.81 326.774 109.435 324.774 109.435C322.08 109.435 319.867 110.03 318.53 113.377Z" fill="#594E68"/>
<path d="M151.35 28.244C150.887 23.2258 149.329 19.8576 147.244 16.1355C147.166 20.5811 146.466 22.3204 143.609 25.6315C140.826 28.8577 139.94 31.2584 142.926 35.0657C146.092 39.102 140.56 37.7275 137.974 37.3154C130.823 36.1756 133.933 38.0853 133.933 46.2416C133.933 52.6489 132.514 51.1536 129.266 53.789C126.968 55.6532 121.082 58.8278 120.614 62.2072C120.062 66.1962 117.737 68.2316 118.622 73.3106C119.262 76.982 115.203 85.8598 116.743 88.0425C117.91 89.6954 120.594 89.5791 117.54 91.5259C116.107 92.44 114.595 92.2516 113.044 92.2516C111.106 92.2516 116.721 93.8133 118.565 94.5739C120.769 95.4832 121.411 98.2079 119.362 100.089C114.044 104.971 116.72 105.733 121.183 102.629C124.028 100.651 129.757 96.3937 132.908 96.1705C143.657 95.4091 159.833 93.2799 161.823 110.54C163.645 126.33 168.656 140.291 174.516 153.574C176.923 159.029 182.721 155.163 186.185 154.953C194.287 154.461 201.891 150.81 209.806 149.8C219.332 148.586 230.652 144.715 239.461 139.858C245.514 136.521 252.215 132.32 258.358 136.593C262.625 139.56 262.967 150.007 266.554 154.372C267.928 156.044 273.033 155.124 274.751 154.663C281.256 152.917 286.33 156.471 292.737 157.638C297.34 158.477 300.16 161.484 305.259 161.484C308.633 161.484 311.707 159.162 314.252 156.259C316.943 153.19 324.343 149.568 325.522 145.809C327.034 140.991 328.102 134.834 329.848 130.134C330.769 127.655 332.836 127.194 334.174 125.489C335.445 123.868 334.497 120.456 335.312 118.377C336.516 115.308 338.787 94.7091 337.589 95.1545C336.25 95.6526 334.344 100.901 332.808 99.7265C331.137 98.4482 333.393 93.2712 332.068 91.0179C329.889 87.3142 325.775 93.213 323.701 94.2836C319.593 96.4035 320.686 91.5313 319.375 88.1877C318.354 85.585 309.989 87.0265 308.162 87.0265C302.931 87.0265 309.649 84.2307 311.179 79.842C311.66 78.4612 313.181 74.331 311.976 72.9478C310.638 71.4127 308.212 74.6983 307.308 73.6735C305.712 71.8647 304.251 68.7386 301.446 68.7386C297.279 68.7386 295.229 73.9638 290.688 73.9638C284.481 73.9638 292.599 67.6123 293.761 66.7066C301.506 60.6725 292.861 62.4326 292.737 59.5947C292.363 51.0066 289.403 60.901 286.077 60.901C283.363 60.901 285.105 54.9422 283.744 52.773C282.456 50.7209 284.543 49.1445 281.467 49.1445H275.889C272.94 49.1445 271.862 42.9999 270.994 45.5159C268.918 51.5323 262.148 48.9684 258.415 47.9108C251.899 46.0646 260.331 45.6236 261.545 44.9353C266.236 42.2773 259.236 38.6474 257.903 36.7348C257.053 35.5162 250.927 29.7232 249.706 29.5503C247.134 29.1859 243.559 35.8556 243.559 28.8972C243.559 26.2903 242.051 27.0552 240.485 26.9377C238.6 26.7963 240.241 24.143 239.005 23.3092C236.456 21.5884 231.264 25.6454 231.264 20.4064C231.264 15.8217 231.998 12.3195 229.158 9.30299C227.022 7.03358 220.643 8.84089 217.945 8.64985C216.329 8.53533 215.686 6.03729 213.392 6.03729C211.612 6.03729 210.041 6.02348 208.781 4.15045C207.213 1.8181 205.704 -2.66238 203.829 2.11846C201.531 7.97975 194.89 0.850707 189.258 4.44073C186.198 6.39134 171.348 16.5717 169.735 9.37556C168.895 5.62693 165.031 6.50792 163.417 8.35956C162.561 9.34236 159.988 7.65942 159.603 9.37556C159.398 10.2918 159.208 13.4717 160.116 13.8024C161.821 14.4236 163.747 13.3763 165.466 14.1652C167.537 15.1158 165.831 17.5304 166.946 18.8098C168.349 20.4196 176.497 18.0918 172.296 24.9783C164.317 38.0588 163.013 15.4715 158.522 19.9709C158.306 20.1871 151.959 34.8422 151.35 28.244Z" fill="#B3A7BC"/>
<path d="M106.599 94.4461C106.599 91.6787 107.257 89.6675 108.389 88.2955C108.851 88.7124 109.349 89.2023 110.187 89.6748C112.584 91.0272 112.02 88.3021 113.205 87.506C116.759 85.1177 121.585 88.801 125.279 85.9155C127.854 83.904 131.397 80.5219 134.22 79.6261C136.962 78.7558 139.516 79.6466 142.25 78.3971C147.006 76.2236 150.092 69.562 156.032 74.7824C158.599 77.038 160.317 79.4544 163.151 81.4334L163.176 81.4507C165.898 83.351 168.317 85.0395 169.929 88.5181C170.918 90.6528 173.016 89.6574 174.769 89.8916C179.779 90.561 181.168 99.2892 183.711 103.555C185.61 106.74 188.973 104.846 191.57 105.579C194.415 106.382 195.009 108.037 198.404 108.037C203.904 108.037 213.684 105.534 218.223 110.061C220.052 111.885 220.588 115.768 222.438 117.869C223.225 118.763 225.285 118.013 225.285 119.893C225.285 122.955 220.578 126.827 219.191 128.424C217.317 130.583 204.376 141.513 207.516 146.497C211.29 152.485 203.777 170.788 198.063 170.498C196.58 170.423 196.442 168.413 195.215 167.968C193.376 167.301 190.28 170.709 189.064 171.655C184.379 175.298 179.772 179.571 174.712 182.354C168.312 185.875 163.11 190.377 156.602 185.535C152.168 182.235 146.089 181.883 141.453 182.209C135.119 182.656 130.014 187.415 124.026 187.415C117.564 187.415 115.462 184.351 110.927 178.595C109.544 176.839 103.917 171.444 101.986 173.896C98.1821 178.724 95.405 197.128 89.6842 191.318C86.9081 188.499 81.5974 196.523 78.5217 196.523C71.5321 196.523 67.4952 189.334 62.0058 185.463C60.0427 184.078 58.5317 184.953 58.4179 181.197C58.2824 176.726 58.632 181.348 56.8802 180.113C52.3383 176.91 54.8028 172.029 53.1784 167.389C52.9629 166.774 46.4539 167.095 45.3191 166.594C40.8365 164.615 36.6726 164.562 33.4163 159.51C27.532 150.38 44.4912 151.905 46.9707 150.979C48.5307 150.397 54.3174 149.594 54.3174 146.786C54.3174 143.167 50.5755 142.424 51.3559 137.966C52.1936 133.181 56.606 131.234 59.443 128.857C60.0293 128.366 66.505 123.635 66.505 123.002C66.505 121.362 64.2976 121.429 63.7713 120.761C61.8636 118.339 67.9135 113.797 69.1247 113.387C72.7253 112.168 74.0458 106.29 77.4396 105.507C80.848 104.72 87.0075 105.624 87.0075 98.2776C87.0075 92.03 85.7828 90.2476 92.3039 93.1448C94.738 94.2262 106.599 102.317 106.599 94.4461Z" fill="#7D6988"/>
<path d="M249.343 357.113C253.81 361.775 257.975 367.099 262.442 372.149C261.382 372.182 260.283 372.135 259.127 372.135C256.349 372.135 254.044 374.748 250.936 374.748H231.482C228.181 374.748 221.803 378.196 219.423 381.569C217.807 383.86 218.783 386.366 215.669 387.811C213.91 388.627 212.922 389.117 211.004 389.117C208.102 389.117 205.934 387.811 202.813 387.811C199.539 387.811 200.765 381.903 200.765 378.667C200.765 374.46 203.477 370.491 198.718 370.829C195.379 371.065 191.827 371.966 188.251 372.135C184.966 372.29 177.066 377.599 175.396 381.279C173.953 384.459 166.977 395.591 166.977 386.504C166.977 376.396 166.545 367.678 174.144 361.975C180.446 357.246 183.359 353.723 183.359 344.05C183.359 339.793 183.978 335.734 181.88 332.293C179.538 328.45 179.816 322.086 176.249 319.811C173.054 317.773 170.123 311.996 167.546 308.707C164.957 305.404 163.647 301.742 162.825 297.023C161.71 290.625 147.014 293.757 142.916 293.757H132.677C129.485 293.757 126.911 291.145 123.746 291.145C117.245 291.145 112.903 278.98 106.34 275.759C100.239 272.765 92.6077 274.163 86.0896 274.163C81.9739 274.163 79.1175 274.334 75.8507 270.824C73.3276 268.114 66.5844 268.875 63.3365 266.325C60.0662 263.757 52.1259 263.063 52.3012 257.471C52.4334 253.254 63.1834 258.609 65.0998 259.14C68.1073 259.974 76.8746 268.019 76.8746 260.447C76.8746 256.208 77.7282 249.983 76.3626 246.15C74.5187 240.974 69.9039 241.862 68.2284 237.586C66.7467 233.806 66.4289 223.23 71.6414 226.555C74.452 228.348 74.1884 239.325 77.9554 240.126C82.1166 241.011 78.9224 232.696 78.9224 230.402C78.9224 223.936 81.2211 219.596 85.5208 216.105C88.9322 213.335 85.1107 224.739 85.0657 225.83C84.8733 230.495 85.0657 235.236 85.0657 239.909C85.0657 241.55 84.5028 245.647 85.6914 246.658C87.9072 248.543 89.1613 248.507 89.1613 252.246C89.1613 258.391 88.0371 261.1 93.2569 261.1C96.4799 261.1 99.5069 261.015 102.472 262.696C105.154 264.217 107.538 267.41 110.663 267.631C115.059 267.943 116.119 268.187 118.854 273.147C122.513 279.78 124.973 279.602 130.344 281.71C132.005 282.362 139.695 282.664 140.299 279.969C141.392 275.089 139.799 271.58 136.317 270.099C132.997 268.687 134.213 258.424 134.213 255.221C134.213 251.663 130.657 246.237 128.581 244.118C127.139 242.646 127.033 237.432 125.453 236.28C123.273 234.691 119.235 231.893 117.773 229.095C116.358 226.387 113.822 219.105 119.366 220.677C126.45 222.685 131.621 236.774 137.853 241.796C145.81 248.208 142.404 256.273 142.404 265.019C142.404 271.457 157.896 275.469 162.654 275.469C167.756 275.469 174.397 288.273 177.216 293.467C179.941 298.488 183.643 303.844 187 308.126C187.665 308.976 187.736 301.579 187.398 299.636C186.625 295.198 184.383 292.169 184.383 287.226V274.816C184.383 270.27 182.128 267.687 181.368 264.293C180.859 262.019 179.264 262.481 179.264 259.793V253.262C179.264 243.628 175.446 237.583 173.007 229.023C171.133 222.448 165.405 214.073 159.298 214.073C155.875 214.073 151.619 214.054 151.619 208.195C151.619 203.356 152.328 198.397 156.738 198.397C160.031 198.397 164.173 197.562 167.375 198.47C168.473 198.781 168.538 206.338 171.641 207.469C175.683 208.942 178.585 204.89 179.321 211.46C180.042 217.9 181.025 217.992 185.862 217.992H195.134C200.441 217.992 199.418 219.4 200.538 225.83C201.084 228.964 200.765 232.499 200.765 235.7C200.765 237.636 203.45 244.399 203.837 240.199C204.257 235.642 203.042 232.795 205.657 229.458C209.244 224.882 211.945 225.298 213.849 218.282C214.337 216.482 215.715 203.682 219.196 208.122C220.61 209.927 221.358 212.768 222.836 214.654C224.472 216.741 225.878 214.18 227.387 214.073C231.757 213.763 230.458 219.045 230.458 223.217C230.458 232.429 232.22 244.776 228.923 253.189C226.964 258.186 226.976 278.569 228.923 284.033C233.271 296.239 242.581 278.337 246.841 273.582C250.214 269.816 257.202 272.375 259.696 268.284C261.242 265.749 261.881 261.077 258.558 259.866C254.743 258.475 255.699 254.249 252.927 251.303C250.591 248.819 248.544 245.566 246.613 243.102C245.942 242.246 244.219 242.487 243.257 241.505C242.292 240.52 242.745 237.719 242.745 236.28V223.217C242.745 215.455 245.096 219.014 248.888 219.298C250.681 219.433 248.888 228.681 248.888 230.765C248.888 241.087 259.187 251.051 267.318 246.44C271.186 244.247 268.023 240.064 269.594 236.28C271.087 232.682 276.141 232.329 277.557 229.168C280.35 222.933 281.653 219.375 281.653 212.041C281.653 209.84 284.662 197.713 285.805 204.276C286.627 208.992 289.844 212.442 289.844 217.339C289.844 222.547 289.217 223.71 287.796 227.789C286.078 232.723 283.928 236.28 289.844 236.28C292.576 236.28 296.799 235.558 299.628 234.901C303.313 234.046 307.478 226.621 310.777 223.943C311.829 223.089 318.702 218.857 317.717 221.911C316.304 226.286 316.167 229.54 314.19 233.668C312.134 237.96 307.475 239.237 305.202 243.102C299.49 252.819 289.451 248.037 281.653 248.037C278.771 248.037 278.581 254.232 278.581 257.471C278.581 263.811 276.904 267.577 274.713 272.856C271.572 280.425 266.743 286.258 263.166 293.104C259.002 301.072 251.364 304.502 246.784 311.32C243.744 315.845 239.673 309.723 239.673 318.577C239.673 323.36 240.697 327.641 240.697 332.366C240.697 335.376 242.664 335.758 242.745 338.462C242.814 340.752 242.745 343.064 242.745 345.356C242.745 351.372 246.061 353.687 249.343 357.113Z" fill="#422A4C"/>
<path d="M176.166 227.454C176.166 225.993 176.468 224.504 176.9 223.032C178.947 223.12 180.277 222.733 180.277 218.964C180.277 213.811 183.16 221.147 184.331 222.883C187.437 227.488 188.89 227.562 192.153 222.23C196.87 214.522 200.207 226.137 202.088 229.414C207.976 239.667 206.071 224.856 205.971 221.286C205.785 214.667 208.927 215.688 210.653 219.762C211.664 222.149 214.58 232.026 217.276 232.026C220.81 232.026 220.359 226.472 220.359 223.536C220.359 222.05 219.349 213.885 220.987 213.885C224.666 213.885 228.784 217.658 232.921 217.658C239.011 217.658 239.658 216.268 235.319 209.966C230.024 202.275 240.183 207.443 243.198 209.821C246.707 212.589 254.389 206.846 257.929 204.596C262.497 201.694 265.859 202.794 270.719 201.911C274.341 201.254 276.767 193.066 271.975 192.841C270.384 192.766 262.317 194.138 265.123 192.841C272.718 189.331 260.507 183.383 257.358 181.811C252.509 179.39 252.613 178.182 255.531 174.844C260.73 168.898 268.491 165.972 274.145 160.839C275.003 160.06 271.799 160.186 274.316 160.186C275.82 160.186 275.94 159.358 275.858 157.574C275.685 153.837 265.58 158.851 265.58 152.349C265.58 150.201 273.639 148.43 275.401 148.43C280.448 148.43 286.788 142.708 279.969 137.981C277.667 136.385 269.591 134.836 269.634 134.643C270.659 130.085 265.58 131.147 265.58 126.878C265.58 122.229 262.02 123.493 266.037 118.388C269.971 113.388 265.863 112.652 262.269 114.76C259.484 116.393 257.065 119.087 255.074 122.017C254.546 122.794 253.604 125.074 253.304 124.121C252.951 122.998 253.748 120.912 253.019 119.985C250.408 116.666 244.24 121.502 241.143 115.776C239.358 112.477 236.153 117.082 233.72 117.082C228.769 117.082 227.375 115.376 223.786 110.982L223.671 110.841C222.215 109.06 219.829 108.173 218.532 106.342C217.752 105.24 218.689 103.349 217.733 102.134C215.004 98.6659 206.944 110.64 205.914 102.787C205.082 96.4444 197.935 105.466 196.15 106.633C193.547 108.334 192.204 106.187 189.527 106.923C185.834 107.938 182.573 111.277 178.678 111.277C174.339 111.277 170.68 107.603 165.889 109.971C160.555 112.607 161.022 118.388 166.46 118.388C172.008 118.388 172.726 131.25 176.965 129.854C178.609 129.312 187.842 124.336 188.442 128.91C188.715 130.989 182.935 135.138 181.305 135.369C176.397 136.062 175.444 134.138 175.138 141.899C175.133 142.048 169.548 143.202 168.287 142.988C164.273 142.308 160.75 136.052 160.75 143.496C160.75 149.376 160.601 147.081 158.123 143.931C156.463 141.821 152.936 148.603 151.043 151.696C150.793 152.104 152.766 159.853 153.556 160.912C155.337 163.302 171.422 176.903 160.521 174.264C156.628 173.321 153.784 172.952 153.556 168.023C153.447 165.673 152.153 161.492 149.959 161.492C140.003 161.492 130.831 175.206 136.084 186.89C139.008 193.394 146.142 196.32 148.303 203.871C149.988 209.76 140.859 208.424 138.939 208.515C137.342 208.59 129.353 212.658 128.947 214.465C127.689 220.058 132.284 221.577 135.627 221.577C137.13 221.577 146.252 219.209 146.361 221.577C146.66 228.026 146.129 227.632 151.5 226.874C152.895 226.677 162.805 225.605 162.805 228.107C162.805 229.797 157.709 237.657 162.406 232.607C166.68 228.011 171.129 228.366 174.567 233.985C175.596 235.667 179.175 239.136 181.076 236.96C184.529 233.011 180.261 232.15 178.678 230.139C177.522 228.669 176.166 230.15 176.166 227.454Z" fill="#9084A3"/>
<path d="M255.882 362.057C251.832 359.303 249.681 358.376 245.511 357.45C244.85 357.437 243.959 357.127 243.032 358.054C241.847 359.24 241.435 360.562 239.556 361.636C237.495 362.813 236.478 365.211 233.553 365.427C231.376 365.589 228.838 364.941 226.812 365.954C221.609 368.556 228.971 373.011 231.92 373.011C234.259 373.011 233.472 375.307 234.5 376.592C235.838 378.264 237.953 378.423 239.925 378.751C243.405 379.331 244.105 384.207 244.928 386.493C246.187 389.992 250.168 390.074 253.249 390.074C254.917 390.074 263.568 390.957 263.676 389.126C263.754 387.803 264.154 384.969 263.149 383.965C261.993 382.809 260.024 383.739 258.726 382.701C258.233 382.307 249.497 376.803 254.671 376.803C258.532 376.803 262.506 377.751 266.098 377.751C270.268 377.751 273.423 376.541 277.474 377.698C279.86 378.38 286.933 378.371 286.479 376.329C285.289 370.973 280.654 372.964 276.947 370.904C274.818 369.722 275.363 368.271 272.681 368.271C270.681 368.271 269.106 367.394 267.257 367.323C261.625 367.107 260.38 365.115 255.882 362.057Z" fill="#422A4C"/>
<path d="M171.129 364.665C173.192 363.713 174.835 362.149 176.627 360.826C177.04 361.802 177.517 363.743 177.942 364.169C180.615 366.842 183.497 366.518 187.445 366.518C188.807 366.518 197.545 365.687 197.678 367.354C197.899 370.117 194.66 371.287 192.483 372.157C188.572 373.722 186.401 377.906 186.401 381.999C186.401 383.735 186.65 382.723 185.252 382.469C183.851 382.215 182.611 380.82 181.206 380.381C180 380.004 178.065 379.941 176.794 380.172C175.908 380.333 175.372 382.075 174.862 382.73C173.204 384.862 172.3 387.829 169.014 387.664C167.743 387.601 166.588 387.194 165.255 387.194C163.441 387.194 162.571 387.892 160.921 388.604C157.826 389.941 155.827 390.014 152.463 390.014C150.903 390.014 149.129 390.264 150.479 388.239C151.365 386.91 152.479 385.705 153.403 384.375C154.738 382.452 156.327 380.382 156.327 378.031C156.327 375.01 154.208 374.832 157.71 372.862C160.264 371.426 162.666 369.994 165.02 368.424C167.087 367.046 168.835 365.724 171.129 364.665Z" fill="#422A4C"/>
<path d="M1229.99 225.434C1230.48 225.239 1230.89 225.027 1231.24 224.799C1231.18 210.367 1230.59 195.889 1233.23 181.894C1234.92 172.973 1236.19 162.968 1241.37 156.117C1246.72 149.048 1253.55 145.477 1259.93 140.232C1267.94 133.648 1281.91 132.642 1291.01 135.756C1299.22 138.565 1304.89 144.702 1310.65 152.002C1312.79 154.721 1314.86 157.881 1317.31 160.161C1319.83 162.515 1323.34 163.217 1325.5 166.298C1327.67 169.386 1332.42 169.539 1335.18 171.641C1339.37 174.829 1343.27 177.083 1348.04 178.934C1349.97 179.682 1352.67 183.328 1354.7 181.894C1356.16 180.869 1359.24 177.346 1360.56 177.346C1367.8 177.346 1372.11 197.382 1372.63 204.639C1372.91 208.501 1372.56 212.619 1372.12 216.408C1370.74 228.272 1375.8 225.747 1382.31 228.105C1385.36 229.211 1378.89 247.698 1378.89 250.561C1378.89 253.855 1382.83 253.136 1380.83 258.504C1379.21 262.855 1373.91 271.339 1376.33 276.121C1378.85 281.084 1386.21 282.227 1389.59 286.519C1393.61 291.609 1389.38 294.075 1385.95 294.317C1383.74 294.473 1385.95 298.672 1385.95 300.166C1385.95 304.345 1376.07 307.131 1373.66 309.913C1371.05 312.921 1369.22 317.808 1365.46 318.867C1361.39 320.015 1361.47 317.329 1360.11 314.39C1359.63 313.367 1354.04 311.864 1352.65 310.491C1350.41 308.281 1347.21 309.582 1345.77 306.592C1344.86 304.716 1344.16 300.815 1342.41 300.815C1339.68 300.815 1342.06 296.916 1339.33 296.916C1335.47 296.916 1336.68 291.154 1331.19 295.617C1328.2 298.056 1323.39 299.071 1320.89 301.538C1317.64 304.748 1315.62 315.004 1313.66 319.733C1310.52 327.298 1312.45 319.261 1309.11 319.011C1303.58 318.598 1303.63 318.26 1305.58 311.069C1307.34 304.575 1309.68 300.089 1313.43 295.328C1316.56 291.36 1317.68 290.462 1313.78 289.046C1311.72 288.299 1315.73 283.381 1310.65 285.364C1306.6 286.944 1307.81 288.444 1305.81 283.92C1303.74 279.261 1296.21 295.698 1295.79 282.331C1295.69 279.157 1294.55 280.806 1293.74 282.62C1291.5 287.631 1288.4 291.991 1285.2 296.05C1281.57 300.663 1278.69 300.815 1273.82 300.815C1270.83 300.815 1273.35 297.621 1272 295.906C1270.55 294.067 1268.88 296.337 1268.18 292.368C1267.51 288.518 1263.9 291.371 1261.52 290.274C1258.67 288.957 1259.8 286.194 1258.68 283.92C1256.83 280.175 1254.29 289.701 1253.27 290.274C1249.94 292.149 1245.15 294.197 1241.49 295.328C1238.83 296.149 1237.23 293.165 1234.09 293.017C1230.56 292.852 1230.81 288.574 1231.75 285.219C1233.03 280.706 1235.23 276.365 1235.34 271.5C1235.44 266.881 1233.87 269.623 1231.75 269.623C1228.76 269.623 1229.22 264.424 1226.12 264.424C1224.77 264.424 1218.95 265.61 1218.95 263.125C1218.95 262.014 1221.59 256.673 1221.45 256.554C1220.05 255.367 1221.04 247.292 1220.2 244.929C1219.13 241.913 1216.9 240.676 1216.9 237.131C1216.9 229.042 1225.29 227.292 1229.99 225.434Z" fill="#7D6988"/>
<path d="M1169.43 276.136C1166.12 288.059 1165.45 298.159 1165.35 310.501C1164.36 310.09 1163.48 309.354 1163.06 308.497C1161.97 306.266 1155.08 308.484 1153.06 307.185C1146.72 303.119 1138.13 299.163 1133.39 307.914L1133.37 307.958C1131.21 311.95 1128.77 316.462 1125.66 309.955C1123.6 305.616 1119.04 304.63 1116.74 301.354C1112.55 295.374 1100.92 302.666 1095.77 302.666C1092.2 302.666 1093.64 307.914 1089.63 307.914H1077.87C1069.03 307.914 1062.79 318.409 1053.83 318.409C1048.97 318.409 1048.87 323.3 1045.41 315.494C1045.08 314.731 1042.16 306.161 1041.55 310.829C1041.17 313.772 1039.5 313.26 1039.5 310.465C1039.5 305.995 1041.22 295.504 1036.89 293.483C1032.43 291.401 1028.05 290.859 1023.36 290.859C1012.67 290.859 1022.83 287.766 1026.32 282.55C1028.43 279.396 1023.26 279.098 1026.2 273.804C1028.85 269.05 1029.27 267.699 1029.27 261.34C1029.27 257.434 1030.47 254.111 1030.3 250.189C1029.98 242.778 1013.65 258.447 1010.35 256.092C1009.32 255.362 999.496 251.436 1001.2 250.189C1003.29 248.658 1012.8 248.474 1012.91 246.253C1013.07 242.767 1012.75 239.244 1012.91 235.757C1012.99 233.956 1019.1 233.37 1016.43 230.437C1013.34 227.041 1013.91 220.014 1018.02 220.014C1021.03 220.014 1024.25 218.849 1027.45 218.702C1040.61 218.1 1015.5 204.098 1020.63 200.335C1023.52 198.222 1026.28 195.986 1029.27 194.067C1030.46 193.309 1037.18 192.72 1037.4 191.735C1038.22 188.076 1034.39 181.886 1034.39 177.376C1034.39 173.865 1039.34 172.734 1039.5 168.849C1039.85 160.776 1043.63 167.346 1045.41 163.018C1046.34 160.771 1040.95 152.505 1046.15 155.074C1049.82 156.882 1051.62 155.088 1054.27 152.443L1054.34 152.377C1057.59 149.13 1059.02 153.785 1061.56 157.041C1064.94 161.385 1068.55 171.146 1072.7 173.805C1077.26 176.735 1075.55 170.791 1076.45 168.193C1078.24 163.007 1084.48 170.809 1087.02 171.4C1089.92 172.077 1092.99 158.37 1094.75 155.438C1097.29 151.193 1101.44 148.092 1104.18 154.418C1107.25 161.505 1107.86 155.875 1111.63 155.875C1116.24 155.875 1114.82 164.08 1115.26 167.464C1115.52 169.429 1118.13 160.385 1120.78 166.808C1122.08 169.959 1125.26 178.749 1127.71 172.785C1131.32 164.003 1135.69 175.2 1138.62 178.688C1141.02 181.547 1141.32 182.583 1143.91 177.595C1147.53 170.625 1149.56 161.875 1151.98 154.126C1153.64 148.806 1157.82 161.079 1158.4 162.289C1160.55 166.796 1162.87 154.057 1166.7 157.041C1168.09 158.125 1172.84 166.98 1174.54 164.257C1177.95 158.802 1181.44 170.744 1182.16 172.858C1184.34 179.247 1183.79 182.657 1178.86 186.633C1176.55 188.499 1173.61 185.752 1171.7 188.819C1170.69 190.443 1171.99 192.264 1170.22 193.776C1168.43 195.306 1165.34 197.33 1163.18 197.639C1160.2 198.062 1148.21 195.62 1151.58 204.271C1152.77 207.323 1155.19 209.229 1156.58 212.143C1157.87 214.849 1158.2 218.393 1160.22 220.452C1161.26 221.511 1164.5 226.384 1165.34 226.574C1166.46 226.828 1168.42 227.496 1169.43 228.177C1172.15 230.029 1169.25 237.295 1167.89 239.037C1164.2 243.771 1168.82 250.715 1169.88 255.947C1171.07 261.823 1170.99 270.486 1169.43 276.136Z" fill="#594E68"/>
<path d="M1319.53 113.377C1316.49 120.982 1314.4 125.946 1309.15 130.109C1309.03 130.955 1308.9 131.785 1308.63 132.498C1307.43 135.752 1305.02 137.404 1303.75 140.964C1300.94 148.876 1304.77 156.766 1304.77 164.61C1304.77 175.699 1310.37 185.524 1316.35 193.219C1319.83 197.692 1333.83 193.217 1335.2 196.722C1335.94 198.633 1334.2 206.488 1336.44 206.648C1340.69 206.951 1339.42 207.596 1341.78 210.297C1342.47 211.086 1344.15 208.974 1345.18 209.567C1345.81 209.927 1347.13 211.814 1347.68 212.486C1349.14 214.255 1351.68 215.846 1353.58 216.865C1359.32 219.937 1360.11 215.018 1365.05 212.195C1367.9 210.564 1368.2 214.382 1370.16 214.53C1372.43 214.702 1372.55 211.903 1375.27 211.903C1380.97 211.903 1378.39 222.794 1383.44 222.412C1387.92 222.073 1383.77 209.434 1385.71 206.94C1388.17 203.776 1397.26 219.263 1401.6 214.238C1403.7 211.806 1397.86 211.903 1401.83 211.903C1403.3 211.903 1410 213.08 1410 210.589C1410 206.625 1408.64 205.63 1407.16 203.729C1406.61 203.013 1406.98 200.992 1406.94 200.079C1406.87 198.743 1405.35 198.9 1405.35 198.474C1405.35 197.605 1407.35 197.486 1406.71 196.43C1406.27 195.712 1405.38 194.889 1406.14 193.803C1407.67 191.618 1408.83 188.957 1408.98 185.629C1409.26 178.998 1405.22 179.953 1401.26 177.455C1400.35 176.882 1392.49 173.203 1392.86 172.784C1394.44 170.972 1398.96 173.159 1401.03 172.2C1403.66 170.982 1402.85 166.927 1402.85 164.026C1402.85 159.116 1397.74 157.311 1397.74 153.444C1397.74 148.529 1397.25 143.591 1393.14 143.591C1389.03 143.591 1391.1 126.6 1388.55 132.352C1388.23 133.066 1386.83 129.199 1385.42 128.411C1383.01 127.051 1380.35 125.995 1377.82 125.273C1374.93 124.446 1368.92 116.723 1375.78 114.763C1376.92 114.435 1383.45 116.036 1382.3 112.72C1380.76 108.246 1378.33 112.763 1378.33 106.224C1378.33 100.748 1369.99 111.108 1368.68 112.793C1365.87 116.407 1358.88 111.825 1361.59 109.508C1362.72 108.536 1368.52 105.552 1364.59 104.108C1363.16 103.582 1364.39 96.2968 1362.49 94.4011C1356.33 88.2343 1357.35 99.8352 1356.82 103.597C1356.02 109.255 1346.66 118.882 1346.66 108.779V99.5828C1346.66 94.2393 1345.21 98.052 1343.03 98.853C1339.68 100.082 1343.68 85.7892 1340.02 85.7892C1336.35 85.7892 1337.9 83.2548 1337.41 79.4397C1337.21 77.9004 1331.62 84.8755 1330.82 85.7892C1326.97 90.1915 1331.56 99.5525 1332.3 104.765C1332.87 108.81 1327.77 109.435 1325.77 109.435C1323.08 109.435 1320.87 110.03 1319.53 113.377Z" fill="#594E68"/>
<path d="M1152.35 28.244C1151.89 23.2258 1150.33 19.8576 1148.24 16.1355C1148.17 20.5811 1147.47 22.3204 1144.61 25.6315C1141.83 28.8577 1140.94 31.2584 1143.93 35.0657C1147.09 39.102 1141.56 37.7275 1138.97 37.3154C1131.82 36.1756 1134.93 38.0853 1134.93 46.2416C1134.93 52.6489 1133.51 51.1536 1130.27 53.789C1127.97 55.6532 1122.08 58.8278 1121.61 62.2072C1121.06 66.1962 1118.74 68.2316 1119.62 73.3106C1120.26 76.982 1116.2 85.8598 1117.74 88.0425C1118.91 89.6954 1121.59 89.5791 1118.54 91.5259C1117.11 92.44 1115.6 92.2516 1114.04 92.2516C1112.11 92.2516 1117.72 93.8133 1119.56 94.5739C1121.77 95.4832 1122.41 98.2079 1120.36 100.089C1115.04 104.971 1117.72 105.733 1122.18 102.629C1125.03 100.651 1130.76 96.3937 1133.91 96.1705C1144.66 95.4091 1160.83 93.2799 1162.82 110.54C1164.64 126.33 1169.66 140.291 1175.52 153.574C1177.92 159.029 1183.72 155.163 1187.18 154.953C1195.29 154.461 1202.89 150.81 1210.81 149.8C1220.33 148.586 1231.65 144.715 1240.46 139.858C1246.51 136.521 1253.21 132.32 1259.36 136.593C1263.62 139.56 1263.97 150.007 1267.55 154.372C1268.93 156.044 1274.03 155.124 1275.75 154.663C1282.26 152.917 1287.33 156.471 1293.74 157.638C1298.34 158.477 1301.16 161.484 1306.26 161.484C1309.63 161.484 1312.71 159.162 1315.25 156.259C1317.94 153.19 1325.34 149.568 1326.52 145.809C1328.03 140.991 1329.1 134.834 1330.85 130.134C1331.77 127.655 1333.84 127.194 1335.17 125.489C1336.45 123.868 1335.5 120.456 1336.31 118.377C1337.52 115.308 1339.79 94.7091 1338.59 95.1545C1337.25 95.6526 1335.34 100.901 1333.81 99.7265C1332.14 98.4482 1334.39 93.2712 1333.07 91.0179C1330.89 87.3142 1326.78 93.213 1324.7 94.2836C1320.59 96.4035 1321.69 91.5313 1320.38 88.1877C1319.35 85.585 1310.99 87.0265 1309.16 87.0265C1303.93 87.0265 1310.65 84.2307 1312.18 79.842C1312.66 78.4612 1314.18 74.331 1312.98 72.9478C1311.64 71.4127 1309.21 74.6983 1308.31 73.6735C1306.71 71.8647 1305.25 68.7386 1302.45 68.7386C1298.28 68.7386 1296.23 73.9638 1291.69 73.9638C1285.48 73.9638 1293.6 67.6123 1294.76 66.7066C1302.51 60.6725 1293.86 62.4326 1293.74 59.5947C1293.36 51.0066 1290.4 60.901 1287.08 60.901C1284.36 60.901 1286.1 54.9422 1284.74 52.773C1283.46 50.7209 1285.54 49.1445 1282.47 49.1445H1276.89C1273.94 49.1445 1272.86 42.9999 1271.99 45.5159C1269.92 51.5323 1263.15 48.9684 1259.41 47.9108C1252.9 46.0646 1261.33 45.6236 1262.55 44.9353C1267.24 42.2773 1260.24 38.6474 1258.9 36.7348C1258.05 35.5162 1251.93 29.7232 1250.71 29.5503C1248.13 29.1859 1244.56 35.8556 1244.56 28.8972C1244.56 26.2903 1243.05 27.0552 1241.49 26.9377C1239.6 26.7963 1241.24 24.143 1240.01 23.3092C1237.46 21.5884 1232.26 25.6454 1232.26 20.4064C1232.26 15.8217 1233 12.3195 1230.16 9.30299C1228.02 7.03358 1221.64 8.84089 1218.95 8.64985C1217.33 8.53533 1216.69 6.03729 1214.39 6.03729C1212.61 6.03729 1211.04 6.02348 1209.78 4.15045C1208.21 1.8181 1206.7 -2.66238 1204.83 2.11846C1202.53 7.97975 1195.89 0.850707 1190.26 4.44073C1187.2 6.39134 1172.35 16.5717 1170.74 9.37556C1169.89 5.62693 1166.03 6.50792 1164.42 8.35956C1163.56 9.34236 1160.99 7.65942 1160.6 9.37556C1160.4 10.2918 1160.21 13.4717 1161.12 13.8024C1162.82 14.4236 1164.75 13.3763 1166.47 14.1652C1168.54 15.1158 1166.83 17.5304 1167.95 18.8098C1169.35 20.4196 1177.5 18.0918 1173.3 24.9783C1165.32 38.0588 1164.01 15.4715 1159.52 19.9709C1159.31 20.1871 1152.96 34.8422 1152.35 28.244Z" fill="#B3A7BC"/>
<path d="M1107.6 94.4461C1107.6 91.6787 1108.26 89.6675 1109.39 88.2955C1109.85 88.7124 1110.35 89.2023 1111.19 89.6748C1113.58 91.0272 1113.02 88.3021 1114.21 87.506C1117.76 85.1177 1122.58 88.801 1126.28 85.9155C1128.85 83.904 1132.4 80.5219 1135.22 79.6261C1137.96 78.7558 1140.52 79.6466 1143.25 78.3971C1148.01 76.2236 1151.09 69.562 1157.03 74.7824C1159.6 77.038 1161.32 79.4544 1164.15 81.4334L1164.18 81.4507C1166.9 83.351 1169.32 85.0395 1170.93 88.5181C1171.92 90.6528 1174.02 89.6574 1175.77 89.8916C1180.78 90.561 1182.17 99.2892 1184.71 103.555C1186.61 106.74 1189.97 104.846 1192.57 105.579C1195.41 106.382 1196.01 108.037 1199.4 108.037C1204.9 108.037 1214.68 105.534 1219.22 110.061C1221.05 111.885 1221.59 115.768 1223.44 117.869C1224.22 118.763 1226.29 118.013 1226.29 119.893C1226.29 122.955 1221.58 126.827 1220.19 128.424C1218.32 130.583 1205.38 141.513 1208.52 146.497C1212.29 152.485 1204.78 170.788 1199.06 170.498C1197.58 170.423 1197.44 168.413 1196.21 167.968C1194.38 167.301 1191.28 170.709 1190.06 171.655C1185.38 175.298 1180.77 179.571 1175.71 182.354C1169.31 185.875 1164.11 190.377 1157.6 185.535C1153.17 182.235 1147.09 181.883 1142.45 182.209C1136.12 182.656 1131.01 187.415 1125.03 187.415C1118.56 187.415 1116.46 184.351 1111.93 178.595C1110.54 176.839 1104.92 171.444 1102.99 173.896C1099.18 178.724 1096.4 197.128 1090.68 191.318C1087.91 188.499 1082.6 196.523 1079.52 196.523C1072.53 196.523 1068.5 189.334 1063.01 185.463C1061.04 184.078 1059.53 184.953 1059.42 181.197C1059.28 176.726 1059.63 181.348 1057.88 180.113C1053.34 176.91 1055.8 172.029 1054.18 167.389C1053.96 166.774 1047.45 167.095 1046.32 166.594C1041.84 164.615 1037.67 164.562 1034.42 159.51C1028.53 150.38 1045.49 151.905 1047.97 150.979C1049.53 150.397 1055.32 149.594 1055.32 146.786C1055.32 143.167 1051.58 142.424 1052.36 137.966C1053.19 133.181 1057.61 131.234 1060.44 128.857C1061.03 128.366 1067.5 123.635 1067.5 123.002C1067.5 121.362 1065.3 121.429 1064.77 120.761C1062.86 118.339 1068.91 113.797 1070.12 113.387C1073.73 112.168 1075.05 106.29 1078.44 105.507C1081.85 104.72 1088.01 105.624 1088.01 98.2776C1088.01 92.03 1086.78 90.2476 1093.3 93.1448C1095.74 94.2262 1107.6 102.317 1107.6 94.4461Z" fill="#7D6988"/>
<path d="M1250.34 357.113C1254.81 361.775 1258.98 367.099 1263.44 372.149C1262.38 372.182 1261.28 372.135 1260.13 372.135C1257.35 372.135 1255.04 374.748 1251.94 374.748H1232.48C1229.18 374.748 1222.8 378.196 1220.42 381.569C1218.81 383.86 1219.78 386.366 1216.67 387.811C1214.91 388.627 1213.92 389.117 1212 389.117C1209.1 389.117 1206.93 387.811 1203.81 387.811C1200.54 387.811 1201.77 381.903 1201.77 378.667C1201.77 374.46 1204.48 370.491 1199.72 370.829C1196.38 371.065 1192.83 371.966 1189.25 372.135C1185.97 372.29 1178.07 377.599 1176.4 381.279C1174.95 384.459 1167.98 395.591 1167.98 386.504C1167.98 376.396 1167.55 367.678 1175.14 361.975C1181.45 357.246 1184.36 353.723 1184.36 344.05C1184.36 339.793 1184.98 335.734 1182.88 332.293C1180.54 328.45 1180.82 322.086 1177.25 319.811C1174.05 317.773 1171.12 311.996 1168.55 308.707C1165.96 305.404 1164.65 301.742 1163.82 297.023C1162.71 290.625 1148.01 293.757 1143.92 293.757H1133.68C1130.48 293.757 1127.91 291.145 1124.75 291.145C1118.24 291.145 1113.9 278.98 1107.34 275.759C1101.24 272.765 1093.61 274.163 1087.09 274.163C1082.97 274.163 1080.12 274.334 1076.85 270.824C1074.33 268.114 1067.58 268.875 1064.34 266.325C1061.07 263.757 1053.13 263.063 1053.3 257.471C1053.43 253.254 1064.18 258.609 1066.1 259.14C1069.11 259.974 1077.87 268.019 1077.87 260.447C1077.87 256.208 1078.73 249.983 1077.36 246.15C1075.52 240.974 1070.9 241.862 1069.23 237.586C1067.75 233.806 1067.43 223.23 1072.64 226.555C1075.45 228.348 1075.19 239.325 1078.96 240.126C1083.12 241.011 1079.92 232.696 1079.92 230.402C1079.92 223.936 1082.22 219.596 1086.52 216.105C1089.93 213.335 1086.11 224.739 1086.07 225.83C1085.87 230.495 1086.07 235.236 1086.07 239.909C1086.07 241.55 1085.5 245.647 1086.69 246.658C1088.91 248.543 1090.16 248.507 1090.16 252.246C1090.16 258.391 1089.04 261.1 1094.26 261.1C1097.48 261.1 1100.51 261.015 1103.47 262.696C1106.15 264.217 1108.54 267.41 1111.66 267.631C1116.06 267.943 1117.12 268.187 1119.85 273.147C1123.51 279.78 1125.97 279.602 1131.34 281.71C1133 282.362 1140.7 282.664 1141.3 279.969C1142.39 275.089 1140.8 271.58 1137.32 270.099C1134 268.687 1135.21 258.424 1135.21 255.221C1135.21 251.663 1131.66 246.237 1129.58 244.118C1128.14 242.646 1128.03 237.432 1126.45 236.28C1124.27 234.691 1120.23 231.893 1118.77 229.095C1117.36 226.387 1114.82 219.105 1120.37 220.677C1127.45 222.685 1132.62 236.774 1138.85 241.796C1146.81 248.208 1143.4 256.273 1143.4 265.019C1143.4 271.457 1158.9 275.469 1163.65 275.469C1168.76 275.469 1175.4 288.273 1178.22 293.467C1180.94 298.488 1184.64 303.844 1188 308.126C1188.67 308.976 1188.74 301.579 1188.4 299.636C1187.63 295.198 1185.38 292.169 1185.38 287.226V274.816C1185.38 270.27 1183.13 267.687 1182.37 264.293C1181.86 262.019 1180.26 262.481 1180.26 259.793V253.262C1180.26 243.628 1176.45 237.583 1174.01 229.023C1172.13 222.448 1166.41 214.073 1160.3 214.073C1156.88 214.073 1152.62 214.054 1152.62 208.195C1152.62 203.356 1153.33 198.397 1157.74 198.397C1161.03 198.397 1165.17 197.562 1168.38 198.47C1169.47 198.781 1169.54 206.338 1172.64 207.469C1176.68 208.942 1179.58 204.89 1180.32 211.46C1181.04 217.9 1182.02 217.992 1186.86 217.992H1196.13C1201.44 217.992 1200.42 219.4 1201.54 225.83C1202.08 228.964 1201.77 232.499 1201.77 235.7C1201.77 237.636 1204.45 244.399 1204.84 240.199C1205.26 235.642 1204.04 232.795 1206.66 229.458C1210.24 224.882 1212.95 225.298 1214.85 218.282C1215.34 216.482 1216.72 203.682 1220.2 208.122C1221.61 209.927 1222.36 212.768 1223.84 214.654C1225.47 216.741 1226.88 214.18 1228.39 214.073C1232.76 213.763 1231.46 219.045 1231.46 223.217C1231.46 232.429 1233.22 244.776 1229.92 253.189C1227.96 258.186 1227.98 278.569 1229.92 284.033C1234.27 296.239 1243.58 278.337 1247.84 273.582C1251.21 269.816 1258.2 272.375 1260.7 268.284C1262.24 265.749 1262.88 261.077 1259.56 259.866C1255.74 258.475 1256.7 254.249 1253.93 251.303C1251.59 248.819 1249.54 245.566 1247.61 243.102C1246.94 242.246 1245.22 242.487 1244.26 241.505C1243.29 240.52 1243.75 237.719 1243.75 236.28V223.217C1243.75 215.455 1246.1 219.014 1249.89 219.298C1251.68 219.433 1249.89 228.681 1249.89 230.765C1249.89 241.087 1260.19 251.051 1268.32 246.44C1272.19 244.247 1269.02 240.064 1270.59 236.28C1272.09 232.682 1277.14 232.329 1278.56 229.168C1281.35 222.933 1282.65 219.375 1282.65 212.041C1282.65 209.84 1285.66 197.713 1286.81 204.276C1287.63 208.992 1290.84 212.442 1290.84 217.339C1290.84 222.547 1290.22 223.71 1288.8 227.789C1287.08 232.723 1284.93 236.28 1290.84 236.28C1293.58 236.28 1297.8 235.558 1300.63 234.901C1304.31 234.046 1308.48 226.621 1311.78 223.943C1312.83 223.089 1319.7 218.857 1318.72 221.911C1317.3 226.286 1317.17 229.54 1315.19 233.668C1313.13 237.96 1308.47 239.237 1306.2 243.102C1300.49 252.819 1290.45 248.037 1282.65 248.037C1279.77 248.037 1279.58 254.232 1279.58 257.471C1279.58 263.811 1277.9 267.577 1275.71 272.856C1272.57 280.425 1267.74 286.258 1264.17 293.104C1260 301.072 1252.36 304.502 1247.78 311.32C1244.74 315.845 1240.67 309.723 1240.67 318.577C1240.67 323.36 1241.7 327.641 1241.7 332.366C1241.7 335.376 1243.66 335.758 1243.75 338.462C1243.81 340.752 1243.75 343.064 1243.75 345.356C1243.75 351.372 1247.06 353.687 1250.34 357.113Z" fill="#422A4C"/>
<path d="M1177.17 227.454C1177.17 225.993 1177.47 224.504 1177.9 223.032C1179.95 223.12 1181.28 222.733 1181.28 218.964C1181.28 213.811 1184.16 221.147 1185.33 222.883C1188.44 227.488 1189.89 227.562 1193.15 222.23C1197.87 214.522 1201.21 226.137 1203.09 229.414C1208.98 239.667 1207.07 224.856 1206.97 221.286C1206.78 214.667 1209.93 215.688 1211.65 219.762C1212.66 222.149 1215.58 232.026 1218.28 232.026C1221.81 232.026 1221.36 226.472 1221.36 223.536C1221.36 222.05 1220.35 213.885 1221.99 213.885C1225.67 213.885 1229.78 217.658 1233.92 217.658C1240.01 217.658 1240.66 216.268 1236.32 209.966C1231.02 202.275 1241.18 207.443 1244.2 209.821C1247.71 212.589 1255.39 206.846 1258.93 204.596C1263.5 201.694 1266.86 202.794 1271.72 201.911C1275.34 201.254 1277.77 193.066 1272.98 192.841C1271.38 192.766 1263.32 194.138 1266.12 192.841C1273.72 189.331 1261.51 183.383 1258.36 181.811C1253.51 179.39 1253.61 178.182 1256.53 174.844C1261.73 168.898 1269.49 165.972 1275.14 160.839C1276 160.06 1272.8 160.186 1275.32 160.186C1276.82 160.186 1276.94 159.358 1276.86 157.574C1276.68 153.837 1266.58 158.851 1266.58 152.349C1266.58 150.201 1274.64 148.43 1276.4 148.43C1281.45 148.43 1287.79 142.708 1280.97 137.981C1278.67 136.385 1270.59 134.836 1270.63 134.643C1271.66 130.085 1266.58 131.147 1266.58 126.878C1266.58 122.229 1263.02 123.493 1267.04 118.388C1270.97 113.388 1266.86 112.652 1263.27 114.76C1260.48 116.393 1258.07 119.087 1256.07 122.017C1255.55 122.794 1254.6 125.074 1254.3 124.121C1253.95 122.998 1254.75 120.912 1254.02 119.985C1251.41 116.666 1245.24 121.502 1242.14 115.776C1240.36 112.477 1237.15 117.082 1234.72 117.082C1229.77 117.082 1228.38 115.376 1224.79 110.982L1224.67 110.841C1223.22 109.06 1220.83 108.173 1219.53 106.342C1218.75 105.24 1219.69 103.349 1218.73 102.134C1216 98.6659 1207.94 110.64 1206.91 102.787C1206.08 96.4444 1198.94 105.466 1197.15 106.633C1194.55 108.334 1193.2 106.187 1190.53 106.923C1186.83 107.938 1183.57 111.277 1179.68 111.277C1175.34 111.277 1171.68 107.603 1166.89 109.971C1161.56 112.607 1162.02 118.388 1167.46 118.388C1173.01 118.388 1173.73 131.25 1177.97 129.854C1179.61 129.312 1188.84 124.336 1189.44 128.91C1189.71 130.989 1183.93 135.138 1182.3 135.369C1177.4 136.062 1176.44 134.138 1176.14 141.899C1176.13 142.048 1170.55 143.202 1169.29 142.988C1165.27 142.308 1161.75 136.052 1161.75 143.496C1161.75 149.376 1161.6 147.081 1159.12 143.931C1157.46 141.821 1153.94 148.603 1152.04 151.696C1151.79 152.104 1153.77 159.853 1154.56 160.912C1156.34 163.302 1172.42 176.903 1161.52 174.264C1157.63 173.321 1154.78 172.952 1154.56 168.023C1154.45 165.673 1153.15 161.492 1150.96 161.492C1141 161.492 1131.83 175.206 1137.08 186.89C1140.01 193.394 1147.14 196.32 1149.3 203.871C1150.99 209.76 1141.86 208.424 1139.94 208.515C1138.34 208.59 1130.35 212.658 1129.95 214.465C1128.69 220.058 1133.28 221.577 1136.63 221.577C1138.13 221.577 1147.25 219.209 1147.36 221.577C1147.66 228.026 1147.13 227.632 1152.5 226.874C1153.89 226.677 1163.81 225.605 1163.81 228.107C1163.81 229.797 1158.71 237.657 1163.41 232.607C1167.68 228.011 1172.13 228.366 1175.57 233.985C1176.6 235.667 1180.17 239.136 1182.08 236.96C1185.53 233.011 1181.26 232.15 1179.68 230.139C1178.52 228.669 1177.17 230.15 1177.17 227.454Z" fill="#9084A3"/>
<path d="M1256.88 362.057C1252.83 359.303 1250.68 358.376 1246.51 357.45C1245.85 357.437 1244.96 357.127 1244.03 358.054C1242.85 359.24 1242.43 360.562 1240.56 361.636C1238.5 362.813 1237.48 365.211 1234.55 365.427C1232.38 365.589 1229.84 364.941 1227.81 365.954C1222.61 368.556 1229.97 373.011 1232.92 373.011C1235.26 373.011 1234.47 375.307 1235.5 376.592C1236.84 378.264 1238.95 378.423 1240.92 378.751C1244.4 379.331 1245.11 384.207 1245.93 386.493C1247.19 389.992 1251.17 390.074 1254.25 390.074C1255.92 390.074 1264.57 390.957 1264.68 389.126C1264.75 387.803 1265.15 384.969 1264.15 383.965C1262.99 382.809 1261.02 383.739 1259.73 382.701C1259.23 382.307 1250.5 376.803 1255.67 376.803C1259.53 376.803 1263.51 377.751 1267.1 377.751C1271.27 377.751 1274.42 376.541 1278.47 377.698C1280.86 378.38 1287.93 378.371 1287.48 376.329C1286.29 370.973 1281.65 372.964 1277.95 370.904C1275.82 369.722 1276.36 368.271 1273.68 368.271C1271.68 368.271 1270.11 367.394 1268.26 367.323C1262.62 367.107 1261.38 365.115 1256.88 362.057Z" fill="#422A4C"/>
<path d="M1172.13 364.665C1174.19 363.713 1175.84 362.149 1177.63 360.826C1178.04 361.802 1178.52 363.743 1178.94 364.169C1181.62 366.842 1184.5 366.518 1188.44 366.518C1189.81 366.518 1198.55 365.687 1198.68 367.354C1198.9 370.117 1195.66 371.287 1193.48 372.157C1189.57 373.722 1187.4 377.906 1187.4 381.999C1187.4 383.735 1187.65 382.723 1186.25 382.469C1184.85 382.215 1183.61 380.82 1182.21 380.381C1181 380.004 1179.07 379.941 1177.79 380.172C1176.91 380.333 1176.37 382.075 1175.86 382.73C1174.2 384.862 1173.3 387.829 1170.01 387.664C1168.74 387.601 1167.59 387.194 1166.25 387.194C1164.44 387.194 1163.57 387.892 1161.92 388.604C1158.83 389.941 1156.83 390.014 1153.46 390.014C1151.9 390.014 1150.13 390.264 1151.48 388.239C1152.37 386.91 1153.48 385.705 1154.4 384.375C1155.74 382.452 1157.33 380.382 1157.33 378.031C1157.33 375.01 1155.21 374.832 1158.71 372.862C1161.26 371.426 1163.67 369.994 1166.02 368.424C1168.09 367.046 1169.83 365.724 1172.13 364.665Z" fill="#422A4C"/>
<path d="M273.905 288.225C276.253 285.877 275.49 284.363 273.757 281.965C275.838 281.714 278.284 281.876 279.71 281.083C284.012 278.693 289.257 277.98 293.633 275.792C298.937 273.14 303.552 277.857 308.327 279.594C310.502 280.384 313.478 278.269 315.52 277.641C318.233 276.807 320.808 276.922 323.638 276.922C332.548 276.922 339.359 290.69 339.359 298.192C339.359 299.693 339.981 303.016 338.845 304.152C337.292 305.704 335.26 303.459 334.684 306.053C334.329 307.65 332.703 306.837 332.166 307.851C331.679 308.772 332.02 310.134 331.961 311.139C331.867 312.722 327.482 311.377 327.337 310.214C327.136 308.606 316.638 308.845 314.903 309.341C314.092 309.573 312.767 312.174 311.615 312.783C310.188 313.539 307.647 312.896 306.067 312.989C305.533 313.02 305.156 313.168 304.901 313.393C304.981 313.562 305.044 313.703 305.09 313.811C308.497 321.759 302.891 315.171 304.901 313.393C303.651 310.732 298.507 301.096 296.099 303.021C295.206 303.736 294.343 305.518 293.12 305.59C290.366 305.752 291.711 303.135 290.345 301.429C289.126 299.904 287.458 301.891 286.184 301.891C284.611 301.891 285.161 300.193 283.872 300.042C283.208 299.963 281.829 300.363 281.303 299.836C281.277 299.81 280.529 294.415 280.173 297.267C279.855 299.806 279.248 293.939 279.248 293.106C279.248 290.934 276.216 291.719 274.624 291.719C271.344 291.719 271.726 290.403 273.905 288.225Z" fill="#7D6988"/>
<path d="M1278.9 288.225C1281.25 285.877 1280.49 284.363 1278.76 281.965C1280.84 281.714 1283.28 281.876 1284.71 281.083C1289.01 278.693 1294.26 277.98 1298.63 275.792C1303.94 273.14 1308.55 277.857 1313.33 279.594C1315.5 280.384 1318.48 278.269 1320.52 277.641C1323.23 276.807 1325.81 276.922 1328.64 276.922C1337.55 276.922 1344.36 290.69 1344.36 298.192C1344.36 299.693 1344.98 303.016 1343.85 304.152C1342.29 305.704 1340.26 303.459 1339.68 306.053C1339.33 307.65 1337.7 306.837 1337.17 307.851C1336.68 308.772 1337.02 310.134 1336.96 311.139C1336.87 312.722 1332.48 311.377 1332.34 310.214C1332.14 308.606 1321.64 308.845 1319.9 309.341C1319.09 309.573 1317.77 312.174 1316.62 312.783C1315.19 313.539 1312.65 312.896 1311.07 312.989C1310.53 313.02 1310.16 313.168 1309.9 313.393C1309.98 313.562 1310.04 313.703 1310.09 313.811C1313.5 321.759 1307.89 315.171 1309.9 313.393C1308.65 310.732 1303.51 301.096 1301.1 303.021C1300.21 303.736 1299.34 305.518 1298.12 305.59C1295.37 305.752 1296.71 303.135 1295.35 301.429C1294.13 299.904 1292.46 301.891 1291.18 301.891C1289.61 301.891 1290.16 300.193 1288.87 300.042C1288.21 299.963 1286.83 300.363 1286.3 299.836C1286.28 299.81 1285.53 294.415 1285.17 297.267C1284.86 299.806 1284.25 293.939 1284.25 293.106C1284.25 290.934 1281.22 291.719 1279.62 291.719C1276.34 291.719 1276.73 290.403 1278.9 288.225Z" fill="#7D6988"/>
<path d="M1086.49 386.927C1095 385.507 1103.02 384.031 1110.5 382.5V223C958.598 194.206 844.03 180.077 727.279 180.979H727.024C610.273 180.077 495.705 194.206 343.803 223V382.5C351.285 384.031 359.305 385.507 367.817 386.927C401.49 392.544 442.846 397.281 488.887 401.054C515.984 403.274 544.705 405.161 574.436 406.696C623.464 409.227 675.217 410.803 727 411.347H727.279C779.062 410.803 830.839 409.227 879.867 406.696C909.598 405.161 938.318 403.274 965.416 401.054C1011.46 397.281 1052.81 392.544 1086.49 386.927Z" fill="#DCDFE5"/>
<path d="M827.837 78.3486C838.873 81.2442 849.726 84.6316 860.356 88.5005V101.246V113.746V125.496V137.5C854.878 135.991 849.224 134.589 843.419 133.295C838.335 132.162 833.135 131.111 827.837 130.143C824.404 129.515 820.93 128.923 817.419 128.365C806.716 126.663 795.672 125.284 784.419 124.227C777.777 123.603 771.061 123.091 764.301 122.691C761.182 122.507 758.054 122.347 754.919 122.21C754.047 122.172 753.175 122.136 752.302 122.102C743.989 121.775 735.631 121.616 727.279 121.624L727.151 121.624H727.024C718.672 121.616 710.315 121.775 702.002 122.102C701.129 122.136 700.256 122.172 699.384 122.21C696.249 122.347 693.121 122.507 690.003 122.691C683.242 123.091 676.526 123.603 669.884 124.227C658.631 125.284 647.587 126.663 636.884 128.365C633.373 128.923 629.899 129.515 626.466 130.143C621.168 131.111 615.968 132.162 610.884 133.295C605.079 134.589 599.425 135.991 593.947 137.5V125.75V114V101.5V88.5005C604.577 84.6316 615.43 81.2442 626.466 78.3486C647.094 72.9366 668.361 69.2424 690.003 67.3326C702.282 66.249 714.682 65.7399 727.154 65.8172C739.624 65.74 752.023 66.2492 764.301 67.3326C785.942 69.2424 807.21 72.9366 827.837 78.3486Z" fill="#DCDFE5"/>
<path d="M764.301 122.691V67.3326M764.301 122.691C771.061 123.091 777.777 123.603 784.419 124.227C795.672 125.284 806.716 126.663 817.419 128.365C820.93 128.923 824.404 129.515 827.837 130.143M764.301 122.691C761.182 122.507 758.054 122.347 754.919 122.21C754.047 122.172 753.175 122.136 752.302 122.102C743.989 121.775 735.631 121.616 727.279 121.624L727.151 121.624H727.024C718.672 121.616 710.315 121.775 702.002 122.102C701.129 122.136 700.256 122.172 699.384 122.21C696.249 122.347 693.121 122.507 690.003 122.691M764.301 67.3326C785.942 69.2424 807.21 72.9366 827.837 78.3486M764.301 67.3326C751.98 66.2454 739.538 65.7365 727.024 65.818L727.279 65.818C714.765 65.7365 702.323 66.2454 690.003 67.3326M827.837 78.3486V130.143M827.837 78.3486C838.873 81.2442 849.726 84.6316 860.356 88.5005V137.5C854.878 135.991 849.224 134.589 843.419 133.295C838.335 132.162 833.135 131.111 827.837 130.143M1086.49 218.514V386.927M1086.49 386.927C1095 385.507 1103.02 384.031 1110.5 382.5V223C958.598 194.206 844.03 180.077 727.279 180.979H727.024C610.273 180.077 495.705 194.206 343.803 223V382.5C351.285 384.031 359.305 385.507 367.817 386.927M1086.49 386.927C1052.81 392.544 1011.46 397.281 965.416 401.054M1037.46 209.824V241.158V251V253.158V393.868M965.416 198.511V233.801V245.801V246V401.054M879.867 406.696V242V240.463V228.463V188.129M879.867 406.696C909.598 405.161 938.318 403.274 965.416 401.054M879.867 406.696C830.839 409.227 779.062 410.803 727.279 411.347H727C675.217 410.803 623.464 409.227 574.436 406.696M779.309 410.454V242V237.774V225.774V181.571M690.003 122.691C683.242 123.091 676.526 123.603 669.884 124.227C658.631 125.284 647.587 126.663 636.884 128.365C633.373 128.923 629.899 129.515 626.466 130.143M690.003 122.691V108.596M690.003 67.3326C668.361 69.2424 647.094 72.9366 626.466 78.3486M690.003 67.3326V80.4999M626.466 78.3486C615.43 81.2442 604.577 84.6316 593.947 88.5005V101.5M626.466 78.3486V91.9999M626.466 130.143C621.168 131.111 615.968 132.162 610.884 133.295C605.079 134.589 599.425 135.991 593.947 137.5V125.75M626.466 130.143V117.321M367.817 218.514V248.291V256.5V260.291V386.927M367.817 386.927C401.49 392.544 442.846 397.281 488.887 401.054M416.845 209.824V241.158V251V253.158V393.868M488.887 198.511V233.801V245.801V246V401.054M574.436 406.696V242V240.463V228.463V188.129M574.436 406.696C544.705 405.161 515.984 403.274 488.887 401.054M674.994 410.454V242V237.774V225.774V181.571M593.947 101.5L626.466 91.9999M593.947 101.5V114M626.466 91.9999V104.5M626.466 91.9999L690.003 80.4999M593.947 114L626.466 104.5M593.947 114V125.75M626.466 104.5V117.321M626.466 104.5L690.003 94.4999M593.947 125.75L626.466 117.321M626.466 117.321L690.003 108.596M690.003 80.4999V94.4999M690.003 80.4999L764.301 80.2457L827.837 91.7457L860.356 101.246M690.003 94.4999V108.596M690.003 94.4999L764.301 94.2457L827.837 104.246L860.356 113.746M690.003 108.596L764.301 108.341L827.837 117.067L860.356 125.496" stroke="#434A5B" stroke-width="5"/>
<path d="M1110.12 234.5V222C958.214 193.206 843.646 179.077 726.895 179.979H726.64C609.889 179.077 495.321 193.206 343.419 222V234.5C273.838 219.7 314.427 205.834 343.419 197.501C375.362 190.834 405.67 185.282 434.693 180.571L593.563 136.5C599.041 134.991 604.695 133.589 610.5 132.295C615.584 131.162 620.784 130.111 626.082 129.143C629.515 128.515 632.989 127.923 636.5 127.365C647.203 125.663 658.247 124.284 669.5 123.227C676.142 122.603 682.858 122.091 689.619 121.692C692.737 121.507 695.865 121.347 699 121.21C699.872 121.172 700.745 121.136 701.617 121.102C709.931 120.775 718.288 120.616 726.64 120.624H726.767L726.895 120.624C735.247 120.616 743.605 120.775 751.918 121.102C752.791 121.136 753.663 121.172 754.535 121.21C757.67 121.347 760.798 121.507 763.917 121.692C770.677 122.091 777.393 122.603 784.035 123.227C795.288 124.284 806.332 125.663 817.035 127.365C820.546 127.923 824.02 128.515 827.453 129.143C832.751 130.111 837.951 131.162 843.035 132.295C848.84 133.589 854.494 134.991 859.972 136.5L1018.84 180.571C1047.86 185.282 1078.17 190.834 1110.12 197.501C1139.11 205.834 1179.7 219.7 1110.12 234.5Z" fill="#434A5B"/>
<path d="M1110.12 275.174C1146.12 271.674 1147.12 256.674 1110.12 251.674C1102.39 250.147 1094.38 248.686 1086.1 247.291C1070.64 244.684 1054.24 242.308 1037.07 240.158C1014.31 237.308 990.177 234.858 965.032 232.801C937.573 230.555 908.904 228.779 879.483 227.463C846.687 225.997 812.956 225.104 778.925 224.774C761.632 224.606 744.26 224.583 726.895 224.704H726.64C709.274 224.583 691.903 224.606 674.61 224.774C640.579 225.104 606.848 225.997 574.052 227.463C544.631 228.779 515.962 230.555 488.503 232.801C463.358 234.858 439.227 237.308 416.461 240.158C399.291 242.308 382.898 244.684 367.433 247.291C359.155 248.686 351.143 250.147 343.419 251.674C306.419 256.674 307.419 271.674 343.419 275.174L343.419 263.674C351.143 262.147 359.155 260.686 367.433 259.291C382.898 256.684 399.291 254.308 416.461 252.158C439.227 249.308 463.358 246.858 488.503 244.801C515.962 242.555 544.631 240.779 574.052 239.463C606.848 237.997 640.579 237.104 674.61 236.774C691.903 236.606 709.274 236.583 726.64 236.704H726.895C744.26 236.583 761.632 236.606 778.925 236.774C812.956 237.104 846.687 237.997 879.483 239.463C908.904 240.779 937.573 242.555 965.032 244.801C990.177 246.858 1014.31 249.308 1037.07 252.158C1054.24 254.308 1070.64 256.684 1086.1 259.291C1094.38 260.686 1102.39 262.147 1110.12 263.674L1110.12 275.174Z" fill="#434A5B"/>
<path d="M859.972 77.2817C871.312 80.6878 887.187 89 859.972 95V87.5007C849.342 83.6317 838.489 80.2443 827.453 77.3488C806.825 71.9367 785.558 68.2426 763.917 66.3328C751.639 65.2493 739.24 64.7402 726.77 64.8174C726.812 64.8176 726.853 64.8179 726.895 64.8182L726.64 64.8182C726.683 64.8179 726.727 64.8176 726.77 64.8174C714.298 64.74 701.898 65.2492 689.619 66.3328C667.977 68.2426 646.71 71.9367 626.082 77.3488C615.046 80.2443 604.193 83.6317 593.563 87.5007L593.563 95C566.348 89 582.223 80.6878 593.563 77.2817C615.973 69.1248 639.377 63.1087 663.395 59.3284L726.496 29.1908L726.64 29L726.767 29.0609L790.14 59.3284C814.158 63.1087 837.562 69.1248 859.972 77.2817Z" fill="#434A5B"/>
<path d="M726.947 120.624H727.074M790.447 59.3284C784.942 58.462 779.406 57.7131 773.842 57.0828C769.194 56.5562 764.526 56.1124 759.842 55.752C755.522 55.4196 751.188 55.1582 746.842 54.9682C742.52 54.7793 738.185 54.6611 733.842 54.614C731.546 54.5892 729.247 54.5842 726.947 54.5992L727.202 54.5992C724.901 54.5842 722.602 54.5891 720.307 54.614C715.963 54.661 711.629 54.7793 707.307 54.9682M1019.15 180.571C996.485 176.893 974.605 173.729 953.342 170.949M727.202 120.624L727.074 120.624M784.342 123.227L853.842 159.891M853.842 159.891C855.983 160.089 858.129 160.292 860.278 160.5C876.684 162.086 893.34 163.802 910.342 165.721M853.842 159.891C835.931 158.237 818.306 156.932 800.842 155.975C797.371 155.784 793.906 155.608 790.447 155.445C787.369 155.3 784.295 155.166 781.224 155.042M817.342 127.365L910.342 165.721M910.342 165.721C924.42 167.31 938.735 169.039 953.342 170.949M843.342 132.295L953.342 170.949M752.224 121.102L781.224 155.042M781.224 155.042C769.726 154.58 758.277 154.27 746.842 154.11C740.293 154.018 733.749 153.976 727.202 153.983H727.074M663.702 59.3284C669.206 58.462 674.743 57.7131 680.307 57.0828C684.955 56.5562 689.623 56.1124 694.307 55.752C698.627 55.4196 702.961 55.1582 707.307 54.9682M435 180.571C457.663 176.893 479.544 173.729 500.807 170.949M707.307 54.9682L726.947 29L746.586 54.9681M669.807 123.227L600.307 159.891M600.307 159.891C598.165 160.089 596.02 160.292 593.87 160.5C577.464 162.086 560.808 163.802 543.807 165.721M600.307 159.891C618.218 158.237 635.842 156.932 653.307 155.975C656.778 155.784 660.242 155.608 663.702 155.445C666.78 155.3 669.854 155.166 672.924 155.042M636.807 127.365L543.807 165.721M543.807 165.721C529.728 167.31 515.413 169.039 500.807 170.949M610.807 132.295L500.807 170.949M701.924 121.102L672.924 155.042M672.924 155.042C684.423 154.58 695.871 154.27 707.307 154.11C713.855 154.018 720.4 153.976 726.947 153.983H727.074M727.074 153.983V120.624" stroke="#DCDFE5" stroke-width="2"/>
</svg>
