<svg width="589" height="308" viewBox="0 0 589 308" fill="none" xmlns="http://www.w3.org/2000/svg">
<rect y="3.62206" width="589" height="304.378" fill="#2B2F3A"/>
<path d="M152.635 39.2V140H142.411V59.36L102.811 127.184H97.7713L58.1713 59.792V140H47.9473V39.2H56.7313L100.507 113.936L143.851 39.2H152.635ZM229.255 140.864C219.271 140.864 210.247 138.656 202.183 134.24C194.215 129.824 187.927 123.728 183.319 115.952C178.807 108.08 176.551 99.296 176.551 89.6C176.551 79.904 178.807 71.168 183.319 63.392C187.927 55.52 194.263 49.376 202.327 44.96C210.391 40.544 219.415 38.336 229.399 38.336C236.887 38.336 243.799 39.584 250.135 42.08C256.471 44.576 261.847 48.224 266.263 53.024L259.495 59.792C251.623 51.824 241.687 47.84 229.687 47.84C221.719 47.84 214.471 49.664 207.943 53.312C201.415 56.96 196.279 61.952 192.535 68.288C188.887 74.624 187.062 81.728 187.062 89.6C187.062 97.472 188.887 104.576 192.535 110.912C196.279 117.248 201.415 122.24 207.943 125.888C214.471 129.536 221.719 131.36 229.687 131.36C241.783 131.36 251.719 127.328 259.495 119.264L266.263 126.032C261.847 130.832 256.423 134.528 249.991 137.12C243.655 139.616 236.743 140.864 229.255 140.864ZM393.667 39.2V140H383.443V59.36L343.843 127.184H338.803L299.203 59.792V140H288.979V39.2H297.763L341.539 113.936L384.883 39.2H393.667ZM445.518 39.2V140H435.15V48.416H411.39V39.2H445.518ZM509.789 140.864C502.013 140.864 495.053 138.8 488.909 134.672C482.861 130.544 478.109 124.64 474.653 116.96C471.293 109.184 469.613 100.064 469.613 89.6C469.613 79.136 471.293 70.064 474.653 62.384C478.109 54.608 482.861 48.656 488.909 44.528C495.053 40.4 502.013 38.336 509.789 38.336C517.565 38.336 524.477 40.4 530.525 44.528C536.669 48.656 541.469 54.608 544.925 62.384C548.381 70.064 550.109 79.136 550.109 89.6C550.109 100.064 548.381 109.184 544.925 116.96C541.469 124.64 536.669 130.544 530.525 134.672C524.477 138.8 517.565 140.864 509.789 140.864ZM509.789 131.36C515.645 131.36 520.781 129.728 525.197 126.464C529.709 123.2 533.213 118.448 535.709 112.208C538.205 105.968 539.453 98.432 539.453 89.6C539.453 80.768 538.205 73.232 535.709 66.992C533.213 60.752 529.709 56 525.197 52.736C520.781 49.472 515.645 47.84 509.789 47.84C503.933 47.84 498.749 49.472 494.237 52.736C489.821 56 486.365 60.752 483.869 66.992C481.373 73.232 480.125 80.768 480.125 89.6C480.125 98.432 481.373 105.968 483.869 112.208C486.365 118.448 489.821 123.2 494.237 126.464C498.749 129.728 503.933 131.36 509.789 131.36Z" fill="#DCDFE5"/>
<path d="M85.0647 177.643V209.143H81.8697V183.943L69.4947 205.138H67.9197L55.5447 184.078V209.143H52.3497V177.643H55.0947L68.7747 200.998L82.3197 177.643H85.0647ZM104.463 209.368C102.123 209.368 100.023 208.858 98.1632 207.838C96.3332 206.818 94.8932 205.393 93.8432 203.563C92.7932 201.703 92.2682 199.618 92.2682 197.308C92.2682 194.998 92.7932 192.928 93.8432 191.098C94.8932 189.268 96.3332 187.843 98.1632 186.823C100.023 185.803 102.123 185.293 104.463 185.293C106.503 185.293 108.318 185.698 109.908 186.508C111.528 187.288 112.803 188.443 113.733 189.973L111.348 191.593C110.568 190.423 109.578 189.553 108.378 188.983C107.178 188.383 105.873 188.083 104.463 188.083C102.753 188.083 101.208 188.473 99.8282 189.253C98.4782 190.003 97.4132 191.083 96.6332 192.493C95.8832 193.903 95.5082 195.508 95.5082 197.308C95.5082 199.138 95.8832 200.758 96.6332 202.168C97.4132 203.548 98.4782 204.628 99.8282 205.408C101.208 206.158 102.753 206.533 104.463 206.533C105.873 206.533 107.178 206.248 108.378 205.678C109.578 205.108 110.568 204.238 111.348 203.068L113.733 204.688C112.803 206.218 111.528 207.388 109.908 208.198C108.288 208.978 106.473 209.368 104.463 209.368ZM153.4 177.643V209.143H150.205V183.943L137.83 205.138H136.255L123.88 184.078V209.143H120.685V177.643H123.43L137.11 200.998L150.655 177.643H153.4ZM176.353 209.413C172.273 209.413 169.093 208.243 166.813 205.903C164.533 203.563 163.393 200.158 163.393 195.688V177.643H166.723V195.553C166.723 199.213 167.548 201.943 169.198 203.743C170.848 205.543 173.233 206.443 176.353 206.443C179.503 206.443 181.903 205.543 183.553 203.743C185.203 201.943 186.028 199.213 186.028 195.553V177.643H189.268V195.688C189.268 200.158 188.128 203.563 185.848 205.903C183.598 208.243 180.433 209.413 176.353 209.413ZM220.813 209.143L213.613 199.018C212.803 199.108 211.963 199.153 211.093 199.153H202.633V209.143H199.303V177.643H211.093C215.113 177.643 218.263 178.603 220.543 180.523C222.823 182.443 223.963 185.083 223.963 188.443C223.963 190.903 223.333 192.988 222.073 194.698C220.843 196.378 219.073 197.593 216.763 198.343L224.458 209.143H220.813ZM211.003 196.318C214.123 196.318 216.508 195.628 218.158 194.248C219.808 192.868 220.633 190.933 220.633 188.443C220.633 185.893 219.808 183.943 218.158 182.593C216.508 181.213 214.123 180.523 211.003 180.523H202.633V196.318H211.003ZM237.503 180.523H226.433V177.643H251.903V180.523H240.833V209.143H237.503V180.523ZM278.733 209.143L271.533 199.018C270.723 199.108 269.883 199.153 269.013 199.153H260.553V209.143H257.223V177.643H269.013C273.033 177.643 276.183 178.603 278.463 180.523C280.743 182.443 281.883 185.083 281.883 188.443C281.883 190.903 281.253 192.988 279.993 194.698C278.763 196.378 276.993 197.593 274.683 198.343L282.378 209.143H278.733ZM268.923 196.318C272.043 196.318 274.428 195.628 276.078 194.248C277.728 192.868 278.553 190.933 278.553 188.443C278.553 185.893 277.728 183.943 276.078 182.593C274.428 181.213 272.043 180.523 268.923 180.523H260.553V196.318H268.923ZM300.103 198.253V209.143H296.818V198.253L284.218 177.643H287.773L298.573 195.328L309.373 177.643H312.703L300.103 198.253ZM343.325 209.413C340.205 209.413 337.385 208.723 334.865 207.343C332.375 205.963 330.41 204.058 328.97 201.628C327.56 199.168 326.855 196.423 326.855 193.393C326.855 190.363 327.56 187.633 328.97 185.203C330.41 182.743 332.39 180.823 334.91 179.443C337.43 178.063 340.25 177.373 343.37 177.373C345.71 177.373 347.87 177.763 349.85 178.543C351.83 179.323 353.51 180.463 354.89 181.963L352.775 184.078C350.315 181.588 347.21 180.343 343.46 180.343C340.97 180.343 338.705 180.913 336.665 182.053C334.625 183.193 333.02 184.753 331.85 186.733C330.71 188.713 330.14 190.933 330.14 193.393C330.14 195.853 330.71 198.073 331.85 200.053C333.02 202.033 334.625 203.593 336.665 204.733C338.705 205.873 340.97 206.443 343.46 206.443C347.24 206.443 350.345 205.183 352.775 202.663L354.89 204.778C353.51 206.278 351.815 207.433 349.805 208.243C347.825 209.023 345.665 209.413 343.325 209.413ZM375.099 209.413C371.979 209.413 369.144 208.723 366.594 207.343C364.074 205.933 362.094 204.013 360.654 201.583C359.244 199.153 358.539 196.423 358.539 193.393C358.539 190.363 359.244 187.633 360.654 185.203C362.094 182.773 364.074 180.868 366.594 179.488C369.144 178.078 371.979 177.373 375.099 177.373C378.219 177.373 381.024 178.063 383.514 179.443C386.034 180.823 388.014 182.743 389.454 185.203C390.894 187.633 391.614 190.363 391.614 193.393C391.614 196.423 390.894 199.168 389.454 201.628C388.014 204.058 386.034 205.963 383.514 207.343C381.024 208.723 378.219 209.413 375.099 209.413ZM375.099 206.443C377.589 206.443 379.839 205.888 381.849 204.778C383.859 203.638 385.434 202.078 386.574 200.098C387.714 198.088 388.284 195.853 388.284 193.393C388.284 190.933 387.714 188.713 386.574 186.733C385.434 184.723 383.859 183.163 381.849 182.053C379.839 180.913 377.589 180.343 375.099 180.343C372.609 180.343 370.344 180.913 368.304 182.053C366.294 183.163 364.704 184.723 363.534 186.733C362.394 188.713 361.824 190.933 361.824 193.393C361.824 195.853 362.394 198.088 363.534 200.098C364.704 202.078 366.294 203.638 368.304 204.778C370.344 205.888 372.609 206.443 375.099 206.443ZM399.078 177.643H402.408V206.263H420.048V209.143H399.078V177.643ZM425.577 177.643H428.907V206.263H446.547V209.143H425.577V177.643ZM474.351 206.263V209.143H452.076V177.643H473.676V180.523H455.406V191.728H471.696V194.563H455.406V206.263H474.351ZM504.188 193.393H507.383V205.408C505.913 206.698 504.173 207.688 502.163 208.378C500.153 209.068 498.038 209.413 495.818 209.413C492.668 209.413 489.833 208.723 487.313 207.343C484.793 205.963 482.813 204.058 481.373 201.628C479.933 199.168 479.213 196.423 479.213 193.393C479.213 190.363 479.933 187.633 481.373 185.203C482.813 182.743 484.793 180.823 487.313 179.443C489.833 178.063 492.683 177.373 495.863 177.373C498.263 177.373 500.468 177.763 502.478 178.543C504.488 179.293 506.183 180.418 507.563 181.918L505.493 184.033C503.003 181.573 499.838 180.343 495.998 180.343C493.448 180.343 491.138 180.913 489.068 182.053C487.028 183.163 485.423 184.723 484.253 186.733C483.083 188.713 482.498 190.933 482.498 193.393C482.498 195.853 483.083 198.073 484.253 200.053C485.423 202.033 487.028 203.593 489.068 204.733C491.108 205.873 493.403 206.443 495.953 206.443C499.193 206.443 501.938 205.633 504.188 204.013V193.393ZM539.083 206.263V209.143H516.808V177.643H538.408V180.523H520.138V191.728H536.428V194.563H520.138V206.263H539.083ZM79.5373 232.643V264.143H76.2973V235.523H68.8723V232.643H79.5373ZM99.6221 264.413C97.1921 264.413 95.0171 263.768 93.0971 262.478C91.2071 261.188 89.7221 259.343 88.6421 256.943C87.5921 254.513 87.0671 251.663 87.0671 248.393C87.0671 245.123 87.5921 242.288 88.6421 239.888C89.7221 237.458 91.2071 235.598 93.0971 234.308C95.0171 233.018 97.1921 232.373 99.6221 232.373C102.052 232.373 104.212 233.018 106.102 234.308C108.022 235.598 109.522 237.458 110.602 239.888C111.682 242.288 112.222 245.123 112.222 248.393C112.222 251.663 111.682 254.513 110.602 256.943C109.522 259.343 108.022 261.188 106.102 262.478C104.212 263.768 102.052 264.413 99.6221 264.413ZM99.6221 261.443C101.452 261.443 103.057 260.933 104.437 259.913C105.847 258.893 106.942 257.408 107.722 255.458C108.502 253.508 108.892 251.153 108.892 248.393C108.892 245.633 108.502 243.278 107.722 241.328C106.942 239.378 105.847 237.893 104.437 236.873C103.057 235.853 101.452 235.343 99.6221 235.343C97.7921 235.343 96.1721 235.853 94.7621 236.873C93.3821 237.893 92.3021 239.378 91.5221 241.328C90.7421 243.278 90.3521 245.633 90.3521 248.393C90.3521 251.153 90.7421 253.508 91.5221 255.458C92.3021 257.408 93.3821 258.893 94.7621 259.913C96.1721 260.933 97.7921 261.443 99.6221 261.443ZM124.893 235.523H113.823V232.643H139.293V235.523H128.223V264.143H124.893V235.523ZM170.938 232.643V264.143H167.653V249.608H147.943V264.143H144.613V232.643H147.943V246.683H167.653V232.643H170.938ZM212.752 255.728H195.202L191.422 264.143H187.957L202.357 232.643H205.642L220.042 264.143H216.532L212.752 255.728ZM211.537 253.028L203.977 236.108L196.417 253.028H211.537ZM251.578 232.643V264.143H248.833L228.583 238.583V264.143H225.253V232.643H227.998L248.293 258.203V232.643H251.578ZM288.184 232.643V264.143H285.439L265.189 238.583V264.143H261.859V232.643H264.604L284.899 258.203V232.643H288.184ZM298.465 232.643H301.795V264.143H298.465V232.643ZM337.883 232.643L323.933 264.143H320.648L306.698 232.643H310.298L322.358 260.003L334.508 232.643H337.883ZM364.73 261.263V264.143H342.455V232.643H364.055V235.523H345.785V246.728H362.075V249.563H345.785V261.263H364.73ZM394.067 264.143L386.867 254.018C386.057 254.108 385.217 254.153 384.347 254.153H375.887V264.143H372.557V232.643H384.347C388.367 232.643 391.517 233.603 393.797 235.523C396.077 237.443 397.217 240.083 397.217 243.443C397.217 245.903 396.587 247.988 395.327 249.698C394.097 251.378 392.327 252.593 390.017 253.343L397.712 264.143H394.067ZM384.257 251.318C387.377 251.318 389.762 250.628 391.412 249.248C393.062 247.868 393.887 245.933 393.887 243.443C393.887 240.893 393.062 238.943 391.412 237.593C389.762 236.213 387.377 235.523 384.257 235.523H375.887V251.318H384.257ZM413.762 264.413C411.422 264.413 409.172 264.038 407.012 263.288C404.882 262.538 403.232 261.548 402.062 260.318L403.367 257.753C404.507 258.893 406.022 259.823 407.912 260.543C409.802 261.233 411.752 261.578 413.762 261.578C416.582 261.578 418.697 261.068 420.107 260.048C421.517 258.998 422.222 257.648 422.222 255.998C422.222 254.738 421.832 253.733 421.052 252.983C420.302 252.233 419.372 251.663 418.262 251.273C417.152 250.853 415.607 250.403 413.627 249.923C411.257 249.323 409.367 248.753 407.957 248.213C406.547 247.643 405.332 246.788 404.312 245.648C403.322 244.508 402.827 242.963 402.827 241.013C402.827 239.423 403.247 237.983 404.087 236.693C404.927 235.373 406.217 234.323 407.957 233.543C409.697 232.763 411.857 232.373 414.437 232.373C416.237 232.373 417.992 232.628 419.702 233.138C421.442 233.618 422.942 234.293 424.202 235.163L423.077 237.818C421.757 236.948 420.347 236.303 418.847 235.883C417.347 235.433 415.877 235.208 414.437 235.208C411.677 235.208 409.592 235.748 408.182 236.828C406.802 237.878 406.112 239.243 406.112 240.923C406.112 242.183 406.487 243.203 407.237 243.983C408.017 244.733 408.977 245.318 410.117 245.738C411.287 246.128 412.847 246.563 414.797 247.043C417.107 247.613 418.967 248.183 420.377 248.753C421.817 249.293 423.032 250.133 424.022 251.273C425.012 252.383 425.507 253.898 425.507 255.818C425.507 257.408 425.072 258.863 424.202 260.183C423.362 261.473 422.057 262.508 420.287 263.288C418.517 264.038 416.342 264.413 413.762 264.413ZM452.517 255.728H434.967L431.187 264.143H427.722L442.122 232.643H445.407L459.807 264.143H456.297L452.517 255.728ZM451.302 253.028L443.742 236.108L436.182 253.028H451.302ZM486.528 264.143L479.328 254.018C478.518 254.108 477.678 254.153 476.808 254.153H468.348V264.143H465.018V232.643H476.808C480.828 232.643 483.978 233.603 486.258 235.523C488.538 237.443 489.678 240.083 489.678 243.443C489.678 245.903 489.048 247.988 487.788 249.698C486.558 251.378 484.788 252.593 482.478 253.343L490.173 264.143H486.528ZM476.718 251.318C479.838 251.318 482.223 250.628 483.873 249.248C485.523 247.868 486.348 245.933 486.348 243.443C486.348 240.893 485.523 238.943 483.873 237.593C482.223 236.213 479.838 235.523 476.718 235.523H468.348V251.318H476.718ZM507.898 253.253V264.143H504.613V253.253L492.013 232.643H495.568L506.368 250.328L517.168 232.643H520.498L507.898 253.253Z" fill="#DCDFE5"/>
</svg>
