<svg width="846" height="387" viewBox="0 0 846 387" fill="none" xmlns="http://www.w3.org/2000/svg">
<path d="M782.486 359.927C790.997 358.507 799.018 357.031 806.499 355.5V196C654.598 167.206 540.03 153.077 423.279 153.979H423.024C306.273 153.077 191.705 167.206 39.8032 196V355.5C47.2846 357.031 55.3053 358.507 63.817 359.927C97.4898 365.544 138.846 370.281 184.887 374.054C211.984 376.274 240.705 378.161 270.436 379.696C319.464 382.227 371.217 383.803 423 384.347H423.279C475.062 383.803 526.839 382.227 575.867 379.696C605.598 378.161 634.318 376.274 661.416 374.054C707.457 370.281 748.813 365.544 782.486 359.927Z" fill="#DDCEE5"/>
<path d="M523.837 51.3488C534.873 54.2443 545.726 57.6317 556.356 61.5007V74.2458V86.7458V98.4958V110.5C550.878 108.991 545.224 107.589 539.419 106.295C534.335 105.162 529.135 104.111 523.837 103.143C520.404 102.515 516.93 101.923 513.419 101.365C502.716 99.6634 491.672 98.2842 480.419 97.227C473.777 96.603 467.061 96.0912 460.301 95.6916C457.182 95.5073 454.054 95.3468 450.919 95.2102C450.047 95.1722 449.175 95.1361 448.302 95.1018C439.989 94.7752 431.631 94.6161 423.279 94.6244L423.151 94.6244H423.024C414.672 94.6161 406.315 94.7752 398.002 95.1018C397.129 95.1361 396.256 95.1722 395.384 95.2102C392.249 95.3468 389.121 95.5073 386.003 95.6916C379.242 96.0912 372.526 96.603 365.884 97.227C354.631 98.2842 343.587 99.6634 332.884 101.365C329.373 101.923 325.899 102.515 322.466 103.143C317.168 104.111 311.968 105.162 306.884 106.295C301.079 107.589 295.425 108.991 289.947 110.5V98.75V87V74.5V61.5007C300.577 57.6317 311.43 54.2443 322.466 51.3488C343.094 45.9367 364.361 42.2426 386.003 40.3328C398.282 39.2491 410.682 38.74 423.154 38.8173C435.624 38.7402 448.023 39.2493 460.301 40.3328C481.942 42.2426 503.21 45.9367 523.837 51.3488Z" fill="#DDCEE5"/>
<path d="M460.301 95.6916V40.3328M460.301 95.6916C467.061 96.0912 473.777 96.603 480.419 97.227C491.672 98.2842 502.716 99.6634 513.419 101.365C516.93 101.923 520.404 102.515 523.837 103.143M460.301 95.6916C457.182 95.5073 454.054 95.3468 450.919 95.2102C450.047 95.1722 449.175 95.1361 448.302 95.1018C439.989 94.7752 431.631 94.6161 423.279 94.6244L423.151 94.6244H423.024C414.672 94.6161 406.315 94.7752 398.002 95.1018C397.129 95.1361 396.256 95.1722 395.384 95.2102C392.249 95.3468 389.121 95.5073 386.003 95.6916M460.301 40.3328C481.942 42.2426 503.21 45.9367 523.837 51.3488M460.301 40.3328C447.98 39.2455 435.538 38.7366 423.024 38.8182L423.279 38.8181C410.765 38.7366 398.323 39.2455 386.003 40.3328M523.837 51.3488V103.143M523.837 51.3488C534.873 54.2443 545.726 57.6317 556.356 61.5007V110.5C550.878 108.991 545.224 107.589 539.419 106.295C534.335 105.162 529.135 104.111 523.837 103.143M782.486 191.514V359.927M782.486 359.927C790.997 358.507 799.018 357.031 806.499 355.5V196C654.598 167.206 540.03 153.077 423.279 153.979H423.024C306.273 153.077 191.705 167.206 39.8032 196V355.5C47.2846 357.031 55.3053 358.507 63.817 359.927M782.486 359.927C748.813 365.544 707.457 370.281 661.416 374.054M733.458 182.824V214.158V224V226.158V366.868M661.416 171.511V206.801V218.801V219V374.054M575.867 379.696V215V213.463V201.463V161.129M575.867 379.696C605.598 378.161 634.318 376.274 661.416 374.054M575.867 379.696C526.839 382.227 475.062 383.803 423.279 384.347H423C371.217 383.803 319.464 382.227 270.436 379.696M475.309 383.454V215V210.774V198.774V154.571M386.003 95.6916C379.242 96.0912 372.526 96.603 365.884 97.227C354.631 98.2842 343.587 99.6634 332.884 101.365C329.373 101.923 325.899 102.515 322.466 103.143M386.003 95.6916V81.5958M386.003 40.3328C364.361 42.2426 343.094 45.9367 322.466 51.3488M386.003 40.3328V53.5M322.466 51.3488C311.43 54.2443 300.577 57.6317 289.947 61.5007V74.5M322.466 51.3488V65M322.466 103.143C317.168 104.111 311.968 105.162 306.884 106.295C301.079 107.589 295.425 108.991 289.947 110.5V98.75M322.466 103.143V90.3214M63.817 191.514V221.291V229.5V233.291V359.927M63.817 359.927C97.4898 365.544 138.846 370.281 184.887 374.054M112.845 182.824V214.158V224V226.158V366.868M184.887 171.511V206.801V218.801V219V374.054M270.436 379.696V215V213.463V201.463V161.129M270.436 379.696C240.705 378.161 211.984 376.274 184.887 374.054M370.994 383.454V215V210.774V198.774V154.571M289.947 74.5L322.466 65M289.947 74.5V87M322.466 65V77.5M322.466 65L386.003 53.5M289.947 87L322.466 77.5M289.947 87V98.75M322.466 77.5V90.3214M322.466 77.5L386.003 67.5M289.947 98.75L322.466 90.3214M322.466 90.3214L386.003 81.5958M386.003 53.5V67.5M386.003 53.5L460.301 53.2458L523.837 64.7458L556.356 74.2458M386.003 67.5V81.5958M386.003 67.5L460.301 67.2458L523.837 77.2458L556.356 86.7458M386.003 81.5958L460.301 81.3416L523.837 90.0672L556.356 98.4958" stroke="#422A4C" stroke-width="5"/>
<path d="M806.115 207.501V195.001C654.214 166.207 539.646 152.077 422.895 152.979H422.64C305.889 152.077 191.321 166.207 39.4192 195.001V207.501C-30.1617 192.701 10.4272 178.834 39.4192 170.501C71.3622 163.835 101.67 158.282 130.693 153.572L289.563 109.5C295.041 107.991 300.695 106.59 306.5 105.296C311.584 104.162 316.784 103.111 322.082 102.143C325.515 101.516 328.989 100.923 332.5 100.365C343.203 98.6638 354.247 97.2846 365.5 96.2274C372.142 95.6034 378.858 95.0916 385.619 94.692C388.737 94.5077 391.865 94.3472 395 94.2106C395.872 94.1726 396.745 94.1365 397.617 94.1022C405.931 93.7756 414.288 93.6165 422.64 93.6248H422.767L422.895 93.6248C431.247 93.6165 439.605 93.7756 447.918 94.1022C448.791 94.1365 449.663 94.1726 450.535 94.2106C453.67 94.3472 456.798 94.5077 459.917 94.692C466.677 95.0916 473.393 95.6034 480.035 96.2274C491.288 97.2846 502.332 98.6638 513.035 100.365C516.546 100.923 520.02 101.516 523.453 102.143C528.751 103.111 533.951 104.162 539.035 105.296C544.84 106.59 550.494 107.991 555.972 109.5L714.841 153.572C743.865 158.282 774.172 163.835 806.115 170.501C835.107 178.834 875.696 192.701 806.115 207.501Z" fill="#422A4C"/>
<path d="M806.116 248.175C842.116 244.675 843.116 229.675 806.115 224.675C798.392 223.147 790.38 221.686 782.102 220.291C766.636 217.685 750.243 215.308 733.073 213.159C710.308 210.309 686.177 207.859 661.032 205.802C633.573 203.556 604.904 201.779 575.483 200.464C542.687 198.997 508.956 198.105 474.925 197.774C457.632 197.606 440.26 197.584 422.895 197.705H422.64C405.274 197.584 387.903 197.606 370.61 197.774C336.579 198.105 302.848 198.997 270.052 200.464C240.631 201.779 211.962 203.556 184.503 205.802C159.358 207.859 135.227 210.309 112.461 213.159C95.2915 215.308 78.8985 217.685 63.433 220.291C55.155 221.686 47.1426 223.147 39.4192 224.675C2.41891 229.675 3.41895 244.675 39.4191 248.175L39.4192 236.675C47.1427 235.147 55.155 233.686 63.433 232.291C78.8985 229.685 95.2915 227.308 112.461 225.159C135.227 222.309 159.358 219.859 184.503 217.802C211.962 215.556 240.631 213.779 270.052 212.464C302.848 210.997 336.579 210.105 370.61 209.774C387.903 209.606 405.274 209.584 422.64 209.705H422.895C440.26 209.584 457.632 209.606 474.925 209.774C508.956 210.105 542.687 210.997 575.483 212.464C604.904 213.779 633.573 215.556 661.032 217.802C686.177 219.859 710.308 222.309 733.073 225.159C750.243 227.308 766.636 229.685 782.102 232.291C790.38 233.686 798.392 235.147 806.115 236.675L806.116 248.175Z" fill="#422A4C"/>
<path d="M555.972 50.2821C567.312 53.6882 583.187 62.0004 555.972 68.0004V60.5011C545.342 56.6321 534.489 53.2447 523.453 50.3491C502.825 44.9371 481.558 41.243 459.917 39.3331C447.639 38.2497 435.24 37.7406 422.77 37.8177C422.812 37.818 422.853 37.8183 422.895 37.8185L422.64 37.8186C422.683 37.8183 422.727 37.818 422.77 37.8177C410.298 37.7404 397.898 38.2495 385.619 39.3331C363.977 41.243 342.71 44.9371 322.082 50.3491C311.046 53.2447 300.193 56.6321 289.563 60.5011L289.563 68.0004C262.348 62.0004 278.223 53.6882 289.563 50.2821C311.973 42.1252 335.377 36.109 359.395 32.3288L422.496 2.19119L422.64 2.00037L422.767 2.06131L486.14 32.3288C510.158 36.109 533.562 42.1252 555.972 50.2821Z" fill="#422A4C"/>
<path d="M661.032 218.001V217.802M661.032 217.802C686.177 219.859 710.308 222.309 733.073 225.159C750.243 227.308 766.636 229.685 782.102 232.291C790.38 233.686 798.392 235.147 806.115 236.675L806.116 248.175C842.116 244.675 843.116 229.675 806.115 224.675C798.392 223.147 790.38 221.686 782.102 220.291C766.636 217.685 750.243 215.308 733.073 213.159C710.308 210.309 686.177 207.859 661.032 205.802C633.573 203.556 604.904 201.779 575.483 200.464C542.687 198.997 508.956 198.105 474.925 197.774C457.632 197.606 440.26 197.584 422.895 197.705H422.64C405.274 197.584 387.903 197.606 370.61 197.774C336.579 198.105 302.848 198.997 270.052 200.464C240.631 201.779 211.962 203.556 184.503 205.802C159.358 207.859 135.227 210.309 112.461 213.159C95.2915 215.308 78.8985 217.685 63.433 220.291C55.155 221.686 47.1426 223.147 39.4192 224.675C2.41891 229.675 3.41895 244.675 39.4191 248.175L39.4192 236.675C47.1427 235.147 55.155 233.686 63.433 232.291C78.8985 229.685 95.2915 227.308 112.461 225.159C135.227 222.309 159.358 219.859 184.503 217.802M661.032 217.802C633.573 215.556 604.904 213.779 575.483 212.464C542.687 210.997 508.956 210.105 474.925 209.774C457.632 209.606 440.26 209.584 422.895 209.705H422.64C405.274 209.584 387.903 209.606 370.61 209.774C336.579 210.105 302.848 210.997 270.052 212.464C240.631 213.779 211.962 215.556 184.503 217.802M486.14 32.3288C510.158 36.109 533.562 42.1252 555.972 50.2821C567.312 53.6882 583.187 62.0004 555.972 68.0004V60.5011C545.342 56.6321 534.489 53.2447 523.453 50.3491C502.825 44.9371 481.558 41.243 459.917 39.3331C447.596 38.2459 435.154 37.737 422.64 37.8186L422.895 37.8185C410.381 37.737 397.939 38.2459 385.619 39.3331C363.977 41.243 342.71 44.9371 322.082 50.3491C311.046 53.2447 300.193 56.6321 289.563 60.5011L289.563 68.0004C262.348 62.0004 278.223 53.6882 289.563 50.2821C311.973 42.1252 335.377 36.109 359.395 32.3288M486.14 32.3288L422.64 2.00037M486.14 32.3288C480.636 31.4624 475.099 30.7135 469.535 30.0831C464.887 29.5566 460.219 29.1127 455.535 28.7523C451.215 28.42 446.881 28.1585 442.535 27.9686C438.213 27.7797 433.879 27.6614 429.535 27.6144C427.239 27.5895 424.941 27.5846 422.64 27.5996L422.895 27.5995C420.594 27.5845 418.296 27.5895 416 27.6144C411.656 27.6614 407.322 27.7796 403 27.9686M422.64 2.00037L403 27.9686M422.64 2.00037L442.28 27.9684M714.841 153.572C743.865 158.282 774.172 163.835 806.115 170.501C835.107 178.834 875.696 192.701 806.115 207.501V195.001C654.214 166.207 539.646 152.077 422.895 152.979H422.64C305.889 152.077 191.321 166.207 39.4192 195.001V207.501C-30.1617 192.701 10.4272 178.834 39.4192 170.501C71.3622 163.835 101.67 158.282 130.693 153.572M714.841 153.572L555.972 109.5C550.494 107.991 544.84 106.59 539.035 105.296M714.841 153.572C692.178 149.894 670.298 146.729 649.035 143.949M480.035 96.2274C473.393 95.6034 466.677 95.0916 459.917 94.692C456.798 94.5077 453.67 94.3472 450.535 94.2106C449.663 94.1726 448.791 94.1365 447.918 94.1022M480.035 96.2274L549.535 132.892M480.035 96.2274C491.288 97.2846 502.332 98.6638 513.035 100.365M549.535 132.892C551.677 133.09 553.822 133.292 555.972 133.5C572.377 135.087 589.033 136.803 606.035 138.722M549.535 132.892C531.624 131.237 513.999 129.933 496.535 128.975C493.064 128.785 489.599 128.608 486.14 128.445C483.062 128.3 479.988 128.166 476.918 128.043M513.035 100.365L606.035 138.722M513.035 100.365C516.546 100.923 520.02 101.516 523.453 102.143C528.751 103.111 533.951 104.162 539.035 105.296M606.035 138.722C620.113 140.311 634.429 142.039 649.035 143.949M539.035 105.296L649.035 143.949M447.918 94.1022C439.605 93.7756 431.247 93.6165 422.895 93.6248L422.767 93.6248M447.918 94.1022L476.918 128.043M476.918 128.043C465.419 127.581 453.97 127.27 442.535 127.11C435.986 127.019 429.442 126.976 422.895 126.983H422.767M184.503 218.001V217.802M359.395 32.3288L422.895 2.00038M359.395 32.3288C364.899 31.4624 370.436 30.7135 376 30.0831C380.648 29.5566 385.316 29.1127 390 28.7523C394.32 28.42 398.654 28.1585 403 27.9686M130.693 153.572L289.563 109.5C295.041 107.991 300.695 106.59 306.5 105.296M130.693 153.572C153.357 149.894 175.237 146.729 196.5 143.949M365.5 96.2274C372.142 95.6034 378.858 95.0916 385.619 94.692C388.737 94.5077 391.865 94.3472 395 94.2106C395.872 94.1726 396.744 94.1365 397.617 94.1022M365.5 96.2274L296 132.892M365.5 96.2274C354.247 97.2846 343.203 98.6638 332.5 100.365M296 132.892C293.859 133.09 291.713 133.292 289.563 133.5C273.158 135.087 256.502 136.803 239.5 138.722M296 132.892C313.911 131.237 331.536 129.933 349 128.975C352.471 128.785 355.936 128.608 359.395 128.445C362.473 128.3 365.547 128.166 368.617 128.043M332.5 100.365L239.5 138.722M332.5 100.365C328.989 100.923 325.515 101.516 322.082 102.143C316.784 103.111 311.584 104.162 306.5 105.296M239.5 138.722C225.422 140.311 211.106 142.039 196.5 143.949M306.5 105.296L196.5 143.949M397.617 94.1022C405.931 93.7756 414.288 93.6165 422.64 93.6248H422.767M397.617 94.1022L368.617 128.043M368.617 128.043C380.116 127.581 391.565 127.27 403 127.11C409.549 127.019 416.093 126.976 422.64 126.983H422.767M422.767 126.983V93.6248" stroke="#DDCEE5" stroke-width="2"/>
</svg>
